<?xml version="1.0" encoding="utf-8"?>
<!-- Generator: Adobe Illustrator 24.0.0, SVG Export Plug-In . SVG Version: 6.00 Build 0)  -->
<svg version="1.1" id="Capa_1" xmlns="http://www.w3.org/2000/svg" xmlns:xlink="http://www.w3.org/1999/xlink" x="0px" y="0px"
	 viewBox="0 0 512 512" style="enable-background:new 0 0 512 512;" xml:space="preserve">
<style type="text/css">
	.st0{fill:#414448;}
</style>
<g>
	<path class="st0" d="M432,8H120C93.5,8,72,29.5,72,56v400c0,26.5,21.5,48,48,48h312c4.4,0,8-3.6,8-8V16C440,11.6,436.4,8,432,8z
		 M88,56c0-17.7,14.3-32,32-32h8v384h-8c-11.8,0-23.2,4.4-32,12.3V56z M424,488H120c-17.7,0-32-14.3-32-32s14.3-32,32-32h304V488z
		 M424,408H144V24h280V408z"/>
	<path class="st0" d="M360,448H136c-4.4,0-8,3.6-8,8s3.6,8,8,8h224c4.4,0,8-3.6,8-8S364.4,448,360,448z"/>
	<path class="st0" d="M400,448h-16c-4.4,0-8,3.6-8,8s3.6,8,8,8h16c4.4,0,8-3.6,8-8S404.4,448,400,448z"/>
	<path class="st0" d="M239,246.1h16v16c0,4.4,3.6,8,8,8h32c4.4,0,8-3.6,8-8v-16h16c4.4,0,8-3.6,8-8v-32c0-4.4-3.6-8-8-8h-16v-16
		c0-4.4-3.6-8-8-8h-32c-4.4,0-8,3.6-8,8v16h-16c-4.4,0-8,3.6-8,8v32C231,242.5,234.6,246.1,239,246.1z M247,214.1h16
		c4.4,0,8-3.6,8-8v-16h16v16c0,4.4,3.6,8,8,8h16v16h-16c-4.4,0-8,3.6-8,8v16h-16v-16c0-4.4-3.6-8-8-8h-16V214.1z"/>
	<path class="st0" d="M279,302.1c44.2,0,80-35.8,80-80s-35.8-80-80-80s-80,35.8-80,80C199.1,266.3,234.8,302.1,279,302.1z
		 M279,158.1c35.3,0,64,28.7,64,64s-28.7,64-64,64s-64-28.7-64-64C215,186.8,243.7,158.2,279,158.1z"/>
	<path class="st0" d="M279,326.1c57.4,0,104-46.6,104-104s-46.6-104-104-104s-104,46.6-104,104C175.1,279.5,221.6,326.1,279,326.1z
		 M279,134.1c48.6,0,88,39.4,88,88s-39.4,88-88,88s-88-39.4-88-88C191.1,173.6,230.4,134.2,279,134.1z"/>
</g>
</svg>
