<?xml version="1.0" encoding="utf-8"?>
<!-- Generator: Adobe Illustrator 24.0.0, SVG Export Plug-In . SVG Version: 6.00 Build 0)  -->
<svg version="1.1" id="Capa_1" xmlns="http://www.w3.org/2000/svg" xmlns:xlink="http://www.w3.org/1999/xlink" x="0px" y="0px"
	 viewBox="0 0 273.2 273.2" style="enable-background:new 0 0 273.2 273.2;" xml:space="preserve">
<style type="text/css">
	.st0{fill:#414448;stroke:#FFFFFF;stroke-width:2;stroke-miterlimit:10;}
	.st1{fill:#FFFFFF;stroke:#FFFFFF;stroke-width:2;stroke-miterlimit:10;}
	.st2{fill:#414448;stroke:#FFFFFF;stroke-width:0.5;stroke-miterlimit:10;}
	.st3{fill:#FFFFFF;stroke:#FFFFFF;stroke-width:0.5;stroke-miterlimit:10;}
	.st4{fill:#FFFFFF;stroke:#FFFFFF;stroke-width:6;stroke-miterlimit:10;}
</style>
<g>
	<g>
		<g>
			<path class="st0" d="M4,268.9c-0.2-0.2-0.6-2.5-0.8-3.4l-0.1-0.3c-0.4-2.2-0.1-4,0.8-5.3c0.8-1.1,2.1-1.8,3.7-2s3.4-0.4,5.2-0.4
				c1.2,0,2.5,0.1,3.7,0.2c0.3,0,0.6,0,1,0c3.2,0,5.4-1.5,7.3-4.9c4.5-7.9,9.2-15.6,13.9-23c1.5-2.4,3.4-4.6,5.4-6.9
				c0.9-1.1,1.9-2.2,2.9-3.4l0.1-0.1l-0.1-0.1c-0.1-0.1-0.3-0.2-0.5-0.4c-0.7-0.5-1.6-1.3-2.7-1.9c-4-2.3-8-4.6-12.1-6.9
				c-3.4-1.9-6.7-3.8-10.1-5.7l-0.5-0.3c-1.4-0.8-2.8-1.6-4-2.7c-2.9-2.6-3.5-7.1-1.4-10.5c1.4-2.4,4.1-3.8,7-3.8
				c1,0,2.1,0.2,3.1,0.6c1.6,0.6,3.1,1.5,4.5,2.3l0.9,0.5c11.1,6.3,22.2,12.6,33.4,18.9l4.7,2.7c0.5,0.3,1.2,0.8,1.9,1.2l7.1,4
				l5.8,3.2c12.6,7.1,26,14.8,39.2,22.4c3.9,2.3,7.6,3.4,11.2,3.4c3.6,0,7.1-1.1,10.8-3.3c5.5-3.3,11.3-6.4,16.8-9.4
				c3.9-2.1,8-4.4,12-6.6c4.7-2.7,9.2-4,13.8-4c3.4,0,6.8,0.7,10.4,2.2c12,4.8,24.3,9.4,36.2,13.8c4.2,1.6,8.5,3.1,12.7,4.7
				c8.1,3,8.8,4.1,8.9,13.3v0.1h0.1c0.7,0.2,1.4,0.4,2.1,0.5c2.3,0.6,4.7,1.1,6.7,2.3c2.4,1.5,2,3,1.4,5.5c-0.3,1-0.6,2.2-0.7,3.6H4
				V268.9z M190.2,240c-3.8,0-7.5,1-11.4,3.1c-2.7,1.5-5.4,2.9-8.1,4.2c-3.5,1.8-7.1,3.6-10.6,5.6c-0.3,0.2-0.6,0.4-0.9,0.7
				c-0.6,0.5-1.3,1-2.2,1v0.3h75.5c0.1,0.1,0.1,0.1,0.2,0.1c0.2,0,0.2-0.2,0.2-0.3v-0.1h-0.1c-0.8-0.3-1.7-0.4-2.5-0.5
				s-1.6-0.1-2.3-0.5c-2.3-0.9-4.6-1.8-6.8-2.7c-7-2.8-14.3-5.6-21.3-8.7C196.7,240.7,193.5,240,190.2,240z M56.3,223
				c-3.6,4.5-9.2,14.9-13.4,22.4c-2.5,4.6-4.9,9-5.3,9.2v0.2h73.8c0.1,0,0.2-0.1,0.4-1v-0.1h-0.1c-9.2-5.2-18.6-10.4-27.6-15.4
				c-9.1-5-18.5-10.2-27.7-15.4L56.3,223L56.3,223z"/>
			<path class="st1" d="M22.8,187.2c1,0,2,0.2,3,0.6c1.6,0.6,3.1,1.5,4.5,2.3c0.3,0.2,0.6,0.3,0.9,0.5c11.7,6.7,23.5,13.3,35.3,20
				l2.8,1.6c0.5,0.4,1.2,0.8,1.9,1.2l4.9,2.7l1.5,0.8c2.2,1.2,4.4,2.5,6.5,3.7c12.6,7.2,26.1,14.8,39.2,22.4c4,2.3,7.7,3.4,11.3,3.4
				s7.2-1.1,10.9-3.3c5.5-3.3,11.3-6.4,16.8-9.4c3.9-2.1,8-4.4,12-6.6c4.7-2.7,9.2-4,13.8-4c3.4,0,6.8,0.7,10.3,2.1
				c12,4.8,24.3,9.4,36.2,13.8c4.2,1.6,8.5,3.1,12.7,4.7c8,3,8.7,4.1,8.8,13.2v0.2h0.2c0.7,0.2,1.4,0.4,2.1,0.5
				c2.3,0.6,4.7,1.1,6.6,2.3c2.4,1.4,2,2.9,1.3,5.4c-0.3,1-0.6,2.1-0.7,3.5H4.1c-0.2-0.4-0.6-2.5-0.7-3.3l-0.1-0.3
				c-0.4-2.1-0.1-3.9,0.8-5.2c0.8-1.1,2-1.8,3.6-2s3.4-0.4,5.2-0.4c1.2,0,2.5,0.1,3.7,0.2c0.3,0,0.7,0,1,0c3.3,0,5.5-1.5,7.5-4.9
				c4.5-7.9,9.2-15.6,13.9-22.9c1.5-2.4,3.4-4.6,5.4-6.9c0.9-1.1,1.9-2.2,2.9-3.4l0.2-0.2l-0.2-0.2c-0.1-0.1-0.3-0.2-0.5-0.4
				c-0.7-0.5-1.6-1.3-2.7-2c-4-2.3-8.1-4.6-12-6.8c-3.4-1.9-6.7-3.8-10.1-5.7l-0.5-0.3c-1.4-0.8-2.8-1.6-4-2.7
				c-2.8-2.6-3.4-7-1.4-10.4C17.4,188.6,20,187.2,22.8,187.2 M37.5,254.5C37.5,254.5,37.6,254.4,37.5,254.5l0.1,0.5h73.8
				c0.3,0,0.4-0.3,0.5-1.1v-0.2l-0.2-0.1c-9.2-5.2-18.6-10.4-27.7-15.4S65.5,228,56.3,222.8l-0.2-0.1l-0.1,0.2
				c-3.6,4.5-9.3,14.9-13.4,22.4C40.3,249.9,38,254.2,37.5,254.5 M157.1,254.9h75.4c0.1,0.1,0.1,0.1,0.3,0.1s0.3-0.1,0.4-0.3
				l0.1-0.2l-0.2-0.1c-0.8-0.4-1.7-0.4-2.5-0.5s-1.5-0.1-2.3-0.4c-2.3-0.9-4.6-1.8-6.9-2.7c-7-2.7-14.3-5.6-21.2-8.7
				c-3.4-1.5-6.6-2.2-9.9-2.2c-3.8,0-7.6,1-11.4,3.1c-2.7,1.5-5.4,2.9-8.1,4.2c-3.5,1.8-7.1,3.6-10.6,5.6c-0.3,0.2-0.6,0.4-0.9,0.7
				c-0.6,0.5-1.2,1-2.1,1v0.4 M22.8,186.9c-2.9,0-5.6,1.5-7.1,3.9c-2.1,3.4-1.6,8,1.4,10.7c1.3,1.2,3,2.1,4.6,3
				c7.4,4.2,14.8,8.4,22.1,12.6c1.4,0.8,2.7,1.9,3.2,2.3c-3.1,3.7-6.1,6.8-8.3,10.3c-4.9,7.5-9.5,15.2-13.9,23
				c-1.8,3.1-3.8,4.8-7.2,4.8c-0.3,0-0.6,0-0.9,0c-1.2-0.1-2.5-0.2-3.7-0.2c-1.7,0-3.5,0.1-5.2,0.4c-3.9,0.6-5.4,3.6-4.7,7.5
				c0.2,1.1,0.6,3.8,1,3.8c87.3,0,174.6,0,262,0c0.5-4.8,2.9-7.1-0.7-9.3c-2.5-1.6-5.9-2.1-8.8-2.9c-0.1-9.2-0.8-10.3-9-13.4
				c-16.3-6.1-32.7-12-48.9-18.5c-3.6-1.5-7.1-2.2-10.4-2.2c-4.7,0-9.3,1.4-13.9,4c-9.6,5.5-19.4,10.4-28.8,16.1
				c-3.7,2.2-7.2,3.3-10.8,3.3s-7.3-1.1-11.1-3.4c-13-7.5-26.1-15-39.2-22.4c-2.7-1.5-5.4-3-8-4.5l-4.9-2.7
				c-0.7-0.4-1.3-0.8-1.9-1.2c-12.7-7.2-25.4-14.4-38.1-21.6c-1.8-1-3.6-2.1-5.5-2.9C24.9,187.1,23.8,186.9,22.8,186.9L22.8,186.9z
				 M37.6,254.7c0.9,0,12.7-24,18.8-31.6c18.4,10.4,36.9,20.3,55.3,30.8c-0.1,0.5-0.2,0.9-0.3,0.9C86.8,254.7,62.2,254.7,37.6,254.7
				L37.6,254.7z M157.1,254.7c1.4,0,2.2-1.1,3.2-1.7c6.2-3.5,12.4-6.4,18.7-9.8c3.7-2,7.5-3.1,11.3-3.1c3.2,0,6.4,0.7,9.8,2.2
				c9.2,4.1,18.7,7.7,28.1,11.4c1.6,0.6,3.2,0.3,4.8,0.9c0,0.1-0.1,0.2-0.1,0.2c-0.1,0-0.1-0.1-0.2-0.1
				C207.7,254.7,182.9,254.7,157.1,254.7L157.1,254.7z"/>
		</g>
		<g>
			<path class="st2" d="M56.2,197.6c-0.3,0-0.5,0-0.8,0c-7.4-0.4-12.8-6.7-12.4-14.2c0.4-6.8,6.3-12.4,13.1-12.4c0.2,0,0.3,0,0.5,0
				c3.6,0.1,7,1.7,9.4,4.4c2.4,2.6,3.6,6,3.4,9.5C69,192,63.2,197.6,56.2,197.6L56.2,197.6z"/>
			<path class="st3" d="M56.1,172c0.2,0,0.3,0,0.5,0c3.4,0.1,6.5,1.6,8.7,4.1c2.2,2.4,3.3,5.5,3.1,8.8c-0.4,6.6-5.7,11.8-12.2,11.8
				c-0.2,0-0.5,0-0.7,0c-6.8-0.4-11.9-6.2-11.5-13.2C44.4,177.1,49.8,172,56.1,172 M56.1,170c-7.3,0-13.6,5.9-14.1,13.3
				c-0.5,8.1,5.4,14.8,13.4,15.3c0.3,0,0.6,0,0.8,0c7.5,0,13.8-6,14.2-13.7c0.4-7.9-5.8-14.6-13.8-14.9C56.5,170,56.3,170,56.1,170
				L56.1,170z"/>
		</g>
		<g>
			<path class="st0" d="M136.2,206.9c-1.1,0-2.3-0.2-2.4-0.3v-68.7h-0.1c-9.6-6.8-16-10.3-24.2-10.3c-15.6,0-28.1,12.1-28.2,12.2
				c-1.3,1.3-3.1,2.1-5,2.1c-0.2,0-0.4,0-0.5,0c-1.5,0-3.1-0.8-4.5-2.1c-7.1-7.1-15.1-10.7-23.9-10.7c-15.3,0-28.1,10.6-28.7,11.1
				c-1.3,1.1-2.9,1.7-4.6,1.7c-1,0-2-0.2-3-0.7c-2.5-1.1-4.1-3.6-4.1-6.4C7.2,61.5,66.8,1.9,140.1,1.9S273,61.5,273,134.8
				c0,2.7-1.6,5.3-4.1,6.4c-0.9,0.4-1.9,0.6-2.9,0.6c-1.7,0-3.3-0.6-4.6-1.7c-0.5-0.5-13.5-11.1-28.7-11.1
				c-8.7,0-16.8,3.6-23.9,10.7c-1.3,1.3-3,2.1-4.6,2.1c-0.1,0-0.2,0-0.3,0c-1.9,0-3.6-0.8-4.9-2.1c-0.5-0.5-12.3-12.2-27.6-12.2
				c-7.8,0-18.4,3.2-23.4,10.4v65.4c0,0.3-1.4,0.8-2.5,1.1c-0.8,0.2-1.6,0.5-2.2,0.8C140.8,206.3,138.4,206.9,136.2,206.9z
				 M232.7,115c8.3,0,16.8,2.2,25.3,6.4l0.2,0.1v-0.2c-5.4-47.2-38.3-86.5-83.8-100.2l-0.5-0.2l0.4,0.4c20.5,19.2,34.3,55.9,37,98.2
				v0.2l0.2-0.1C217.2,116.4,224,115,232.7,115z M140.1,6.3c-12,0-23.4,4.9-33.7,14.5C60.6,34.4,27.4,73.7,22,121.1v0.2l0.2-0.1
				c8.8-4.4,17.3-6.6,25.3-6.6c8.1,0,15.1,1.6,21.3,5l0.2,0.1l0.2,0.1v-0.2c2.7-42.2,16.8-79,37.7-98.5h0.1
				c10.3-9.6,21.5-14.5,33.2-14.5c2.9,0,5.9,0.3,8.9,0.9l0.1-0.2C146.2,6.6,143.1,6.3,140.1,6.3z M171.4,113
				c8.9,0,17.5,2.4,25.5,7.1c0.1,0,0.3,0.2,0.4,0.2l0.2,0.1v-0.2c-3.3-49.3-24.6-91.6-49.3-98.6H148v98.7l0.2-0.2
				C153.1,115.5,163.6,113,171.4,113z M109.6,113.4c8.2,0,14.5,2.3,24.1,6.8l0.2,0.1V21.6h-0.2c-26.8,6.3-46.4,44.8-50.1,98.2v0.2
				l0.2-0.1C91.2,115.7,100.4,113.4,109.6,113.4z"/>
			<path class="st1" d="M140.1,1.8v0.3C213.3,2,272.9,61.6,272.9,134.8c0,2.7-1.6,5.2-4,6.3c-0.9,0.4-1.9,0.6-2.9,0.6
				c-1.6,0-3.2-0.6-4.5-1.7c-0.5-0.5-13.5-11.1-28.7-11.1c-8.8,0-16.8,3.6-24,10.7c-1.3,1.3-3,2-4.6,2c-0.1,0-0.2,0-0.3,0
				c-1.8,0-3.5-0.7-4.8-2.1c-0.5-0.5-12.4-12.3-27.7-12.3c-7.8,0-18.5,3.3-23.5,10.4v0.1v0.1v65.3c-0.1,0.3-1.5,0.7-2.4,1
				c-0.8,0.2-1.6,0.5-2.2,0.8c-2.4,1.1-4.8,1.7-7,1.7c-0.9,0-2-0.1-2.3-0.3v-68.6v0.1l-0.1-0.1c-9.6-6.9-16-10.3-24.3-10.3
				c-15.6,0-28.2,12.1-28.3,12.3c-1.3,1.3-3.1,2.1-4.9,2.1c-0.2,0-0.3,0-0.5,0c-1.5,0-3.1-0.7-4.4-2.1c-7.1-7.1-15.2-10.7-24-10.7
				c-15.3,0-28.2,10.7-28.8,11.1c-1.3,1.1-2.8,1.7-4.5,1.7c-1,0-2-0.2-2.9-0.6c-2.4-1.1-4-3.6-4-6.3C7.3,61.6,66.9,2,140.1,2V1.8
				 M106.3,20.7c-45.9,13.6-79,53-84.4,100.4l-0.1,0.5l0.4-0.2c8.8-4.4,17.2-6.6,25.2-6.6c8.1,0,15,1.6,21.2,5l0.1,0.1l0.1,0.1
				l0.3,0.2v-0.4c2.7-42.1,16.7-78.9,37.6-98.4l0,0h0.1h0.1l0,0C117.2,11.8,128.3,7,140,7c2.9,0,5.9,0.3,8.8,0.9l0.1-0.5
				c-3-0.7-6.1-1-9.1-1C128.1,6.2,116.7,11,106.3,20.7 M211.1,119.9l0.3-0.2c5.8-3.1,12.5-4.6,21.2-4.6c8.2,0,16.7,2.1,25.2,6.4
				l0.4,0.2l-0.1-0.5c-5.4-47.2-38.3-86.5-83.8-100.3l-1-0.3l0.8,0.7c10,9.4,18.7,23.2,25,40c6.4,17,10.6,37.1,11.9,58.1
				L211.1,119.9 M147.8,120.6l0.4-0.4c5-4.7,15.4-7.1,23.1-7.1c8.8,0,17.4,2.4,25.5,7.1c0.1,0,0.1,0.1,0.2,0.1
				c0.1,0,0.1,0.1,0.2,0.1l0.4,0.2v-0.5c-1.6-24.1-7.7-47.5-17-65.8c-9.2-17.8-20.7-29.5-32.5-32.8l-0.3-0.1v0.4v15.8V120V120.6
				 M83.5,120.3l0.4-0.2c7.4-4.2,16.5-6.5,25.7-6.5c8.2,0,14.5,2.3,24,6.7l0.4,0.2v-0.4V37.6V21.8v-0.3l-0.3,0.1
				c-13.7,3.2-25.6,14.5-34.5,32.8c-8.5,17.3-13.9,40-15.6,65.5L83.5,120.3 M211.1,120.4 M140.1,1.8c-73.4,0-133,59.6-133,133
				c0,2.8,1.6,5.3,4.2,6.5c1,0.5,2,0.7,3,0.7c1.7,0,3.3-0.6,4.7-1.7c0.1-0.1,13.2-11,28.6-11c8.7,0,16.7,3.6,23.8,10.7
				c1.2,1.2,2.9,2.1,4.6,2.1c0.2,0,0.4,0,0.5,0c1.9,0,3.8-0.8,5.1-2.2c0.1-0.1,12.7-12.2,28.1-12.2c8.2,0,14.5,3.5,24.1,10.3v68.7
				c0,0.2,1.6,0.4,2.5,0.4c2.1,0,4.5-0.6,7.1-1.8c1.5-0.7,4.7-1.3,4.7-2V138c4.8-6.8,15.1-10.3,23.3-10.3
				c15.5,0,27.4,12.1,27.5,12.2c1.3,1.4,3.1,2.2,5,2.2c0.1,0,0.2,0,0.3,0c1.7,0,3.5-0.8,4.7-2.1c7.1-7.1,15.1-10.7,23.8-10.7
				c15.3,0,28.3,10.8,28.6,11c1.3,1.1,3,1.7,4.7,1.7c1,0,2-0.2,3-0.7c2.5-1.2,4.2-3.7,4.2-6.5C273.1,61.4,213.4,1.8,140.1,1.8
				L140.1,1.8z M22.2,121.1c5.4-47.8,39.4-86.9,84.3-100.2c10-9.3,21.4-14.5,33.6-14.5c3.1,0,6.1,0.3,9.1,1
				c-2.9-0.6-5.9-0.9-8.9-0.9C128.1,6.5,117,11.7,107,21h-0.1c-20.5,19-35,55.2-37.8,98.6c-0.1,0-0.2-0.1-0.3-0.1
				c-6.6-3.6-13.8-5-21.4-5C37.7,114.5,28.8,117.8,22.2,121.1L22.2,121.1z M211.4,119.4c-2.8-43.2-16.7-79.2-37-98.3
				c44.6,13.5,78.2,52.5,83.7,100.1c-6.7-3.3-15.5-6.4-25.3-6.4C225.1,114.9,218,115.9,211.4,119.4L211.4,119.4z M148.1,120V37.6
				V21.8c23.8,6.6,45.8,47.9,49.3,98.4c-0.1-0.1-0.2-0.1-0.4-0.2c-6.6-3.9-15.2-7.1-25.6-7.1C163.1,112.9,152.8,115.6,148.1,120
				L148.1,120z M83.7,119.8c3.5-50.3,21.5-91.4,50-98.1v15.8v82.4c-9.6-4.5-15.8-6.8-24.1-6.8C99.4,113.3,90.3,116.1,83.7,119.8
				L83.7,119.8z"/>
		</g>
		<g>
			<path class="st0" d="M152.2,212.5c2.9-2,7.4-3.8,12.2-5.7c3-1.2,6-2.4,8.8-3.7c4.5-2.1,8.2-3.1,12.1-3.1c3.5,0,6.9,0.7,10.6,2.2
				c10.8,4.4,21.9,8.6,32.6,12.6c5,1.9,9.9,3.7,14.9,5.6l0.4,0.2c1.4,0.5,2.7,1,3.9,1.9c2.7,1.9,3.8,5.6,2.7,9.1
				c-1,3.2-3.6,5.1-6.7,5.1h-0.3c-2.5-0.1-4.8-1-6.6-1.7l-6.8-2.7c-10.8-4.2-21.9-8.6-32.8-13.2c-3.3-1.4-6.5-2.1-9.6-2.1
				c-3.9,0-7.7,1-11.6,3.2c-3.5,1.9-6.9,3.8-10.4,5.7c-7.3,4-14.8,8.1-22.1,12.3c-3.5,2.1-6.7,3-10.1,3c-3.2,0-6.5-1-10.1-3.1
				c-15.7-9.1-32-18.3-48.6-27.6c-5.2-2.9-7.8-7-7.8-12.2c0-3.6,1.3-6.9,3.7-9.3c2.5-2.5,6-3.9,10-3.9h0.3c1.1,0,2.8,1.1,4.7,2.3
				c0.9,0.6,1.8,1.2,2.7,1.6c14,7.6,28.2,16,41.5,23.9c3.5,2.1,6.8,3.1,10,3.1c3,0,6-0.7,9-2.1c0.2-0.1,0.5-0.1,0.7-0.1"/>
			<path class="st4" d="M151.3,213.1l0.9-0.6h0.1c2.9-1.9,7.4-3.7,12.1-5.6c3-1.2,6-2.4,8.8-3.7c4.5-2.1,8.1-3,12.1-3
				c3.5,0,6.9,0.7,10.5,2.2c10.8,4.4,21.9,8.6,32.6,12.6c4.9,1.8,9.9,3.7,14.9,5.6l0.4,0.2c1.3,0.5,2.7,1,3.9,1.8
				c2.7,1.8,3.7,5.5,2.6,9c-1,3.1-3.6,5-6.6,5c-0.1,0-0.2,0-0.3,0h-0.1c-2.4-0.1-4.7-0.9-6.5-1.6c-2.3-0.9-4.5-1.8-6.8-2.7
				c-10.8-4.2-21.9-8.6-32.8-13.2c-3.3-1.4-6.5-2.1-9.7-2.1c-3.9,0-7.7,1-11.6,3.2c-3.5,1.9-6.9,3.8-10.4,5.7
				c-7.3,4-14.8,8.1-22.1,12.3c-3.3,1.9-6.5,2.8-9.8,2.8c-3.2,0-6.4-1-10-3.1c-15.7-9.1-32-18.4-48.6-27.6
				c-5.1-2.9-7.8-6.9-7.8-12.1c0-3.5,1.3-6.8,3.7-9.2c2.5-2.5,5.9-3.9,9.9-3.9H81 M81,185.2c1,0,2.8,1.1,4.6,2.3
				c0.9,0.6,1.8,1.2,2.7,1.6c14,7.6,28.2,16,41.5,23.9c3.5,2.1,6.8,3.1,10,3.1c3.1,0,6-0.7,9-2.1c0.2-0.1,0.4-0.1,0.6-0.1h0.1h0.1
				 M81,185c-0.1,0-0.2,0-0.3,0c-8.5,0-13.9,6.2-13.9,13.3c0,5.7,3.1,9.6,7.9,12.3c16.2,9.1,32.5,18.3,48.6,27.6
				c3.5,2,6.8,3.1,10.2,3.1c3.3,0,6.6-0.9,9.9-2.9c10.7-6.2,21.7-12,32.5-18c3.8-2.1,7.6-3.2,11.5-3.2c3.1,0,6.3,0.7,9.6,2.1
				c13.1,5.6,26.4,10.7,39.6,15.9c2.1,0.8,4.4,1.5,6.6,1.7c0.1,0,0.3,0,0.4,0c3.3,0,5.9-2.1,6.9-5.2c1.1-3.5,0.1-7.3-2.7-9.3
				c-1.3-0.9-2.9-1.5-4.3-2c-15.8-6.1-31.8-11.8-47.5-18.2c-3.7-1.5-7.2-2.2-10.6-2.2c-4.2,0-7.9,1.1-12.2,3.1
				c-7,3.3-16.3,6.2-21,9.4l-0.9,0.6l-1.5,0.6c-0.1,0-0.1,0-0.2,0c-0.2,0-0.5,0-0.7,0.1c-3.1,1.5-6,2.1-8.9,2.1
				c-3.3,0-6.5-1-9.9-3.1c-13.6-8.1-27.6-16.3-41.5-23.9C85.7,187.4,82.6,185,81,185L81,185z"/>
		</g>
	</g>
</g>
</svg>
