<?xml version="1.0" encoding="utf-8"?>
<!-- Generator: Adobe Illustrator 14.0.0, SVG Export Plug-In . SVG Version: 6.00 Build 43363)  -->
<!DOCTYPE svg PUBLIC "-//W3C//DTD SVG 1.1//EN" "http://www.w3.org/Graphics/SVG/1.1/DTD/svg11.dtd">
<svg version="1.1" id="Capa_1" xmlns="http://www.w3.org/2000/svg" xmlns:xlink="http://www.w3.org/1999/xlink" x="0px" y="0px"
	 width="190.5px" height="55.25px" viewBox="0 0 190.5 55.25" enable-background="new 0 0 190.5 55.25" xml:space="preserve">
<g>
	<g>
		<g>
			<g>
				<g>
					<path fill="#099547" d="M24.338,24.627c-0.232,0-0.435,0.146-0.542,0.361v-0.033c0-0.45-0.319-0.814-0.714-0.814
						c-0.271,0-0.507,0.173-0.628,0.428c-0.12-0.255-0.355-0.428-0.627-0.428c-0.218,0-0.412,0.111-0.542,0.286v-2.528
						c0-0.45-0.32-0.814-0.714-0.814s-0.714,0.364-0.714,0.814v4.97l-0.332-0.692c-0.13-0.271-0.374-0.425-0.625-0.425
						c-0.116,0-0.234,0.032-0.344,0.101c-0.345,0.217-0.471,0.713-0.281,1.106c0,0,1.663,3.493,1.92,3.868
						c0.246,0.362,0.551,0.618,0.973,0.618h2.477c0.729,0,1.319-0.7,1.319-1.563v-4.541C24.963,24.947,24.684,24.627,24.338,24.627z
						"/>
					<path fill="#099547" d="M26.399,12.15h-9.648c-0.6,0-1.086,0.488-1.086,1.087v15.858c0,0.598,0.486,1.085,1.086,1.085h1.79
						c0,0,0.346,0,0.217-0.294c-0.204-0.466-0.537-1.146-0.784-1.634c-0.118-0.233-0.417-0.224-0.417-0.224h-0.701
						c-0.142,0-0.258-0.118-0.258-0.264V14.589c0-0.145,0.116-0.264,0.258-0.264h9.439c0.141,0,0.257,0.119,0.257,0.264v13.177
						c0,0.146-0.116,0.264-0.257,0.264h-0.27c0,0-0.335,0.008-0.335,0.411c0,0.332-0.001,1.31-0.001,1.329
						c0,0.411,0.388,0.411,0.388,0.411h0.322c0.599,0,1.086-0.487,1.086-1.085V13.237C27.485,12.639,26.998,12.15,26.399,12.15z
						 M22.765,13.67h-2.38c-0.114,0-0.206-0.092-0.206-0.206c0-0.113,0.092-0.205,0.206-0.205h2.38c0.114,0,0.206,0.092,0.206,0.205
						C22.971,13.578,22.879,13.67,22.765,13.67z"/>
				</g>
			</g>
			<circle fill="none" stroke="#099547" stroke-width="0.6457" cx="21.448" cy="21.797" r="15.91"/>
		</g>
		<g>
			<path fill="#099547" d="M3.984,48.296c-0.407-0.233-0.719-0.569-0.938-1.005c-0.218-0.437-0.328-0.947-0.328-1.533
				c0-0.585,0.11-1.094,0.328-1.527c0.219-0.434,0.53-0.768,0.938-1.002c0.407-0.233,0.882-0.351,1.424-0.351
				c0.352,0,0.682,0.052,0.99,0.155s0.582,0.254,0.821,0.451c0.069,0.053,0.118,0.109,0.145,0.168c0.025,0.058,0.04,0.13,0.04,0.215
				c0,0.117-0.032,0.215-0.096,0.295c-0.064,0.08-0.142,0.119-0.232,0.119c-0.105,0-0.215-0.036-0.327-0.111
				C6.521,44,6.308,43.883,6.11,43.815c-0.196-0.066-0.414-0.1-0.653-0.1c-0.554,0-0.973,0.173-1.258,0.519
				c-0.284,0.346-0.426,0.854-0.426,1.523c0,0.677,0.142,1.188,0.426,1.533c0.285,0.346,0.704,0.518,1.258,0.518
				c0.229,0,0.439-0.034,0.635-0.104c0.193-0.068,0.413-0.186,0.657-0.351c0.054-0.032,0.106-0.059,0.16-0.079
				c0.054-0.021,0.108-0.032,0.167-0.032c0.091,0,0.168,0.04,0.232,0.119c0.063,0.08,0.096,0.178,0.096,0.296
				c0,0.079-0.015,0.149-0.04,0.211c-0.026,0.062-0.075,0.119-0.145,0.171c-0.239,0.197-0.513,0.349-0.821,0.452
				s-0.639,0.154-0.99,0.154C4.866,48.646,4.392,48.53,3.984,48.296z"/>
			<path fill="#099547" d="M8.868,48.393c-0.301-0.165-0.534-0.402-0.698-0.711c-0.165-0.308-0.248-0.667-0.248-1.077
				s0.083-0.768,0.248-1.073c0.164-0.306,0.397-0.542,0.698-0.706c0.3-0.165,0.65-0.248,1.05-0.248s0.748,0.083,1.049,0.248
				c0.301,0.164,0.532,0.4,0.695,0.706c0.161,0.306,0.243,0.663,0.243,1.073s-0.082,0.77-0.243,1.077
				c-0.163,0.309-0.395,0.546-0.695,0.711s-0.649,0.246-1.049,0.246S9.168,48.558,8.868,48.393z M10.652,47.547
				c0.17-0.214,0.255-0.527,0.255-0.942c0-0.41-0.085-0.723-0.255-0.938c-0.171-0.216-0.416-0.323-0.734-0.323
				c-0.319,0-0.565,0.107-0.738,0.323c-0.173,0.215-0.26,0.527-0.26,0.938c0,0.415,0.085,0.729,0.256,0.942
				c0.17,0.212,0.415,0.318,0.733,0.318C10.234,47.865,10.481,47.759,10.652,47.547z"/>
			<path fill="#099547" d="M15.129,48.24c0,0.128-0.053,0.225-0.156,0.291s-0.251,0.095-0.442,0.085L14.314,48.6
				c-0.894-0.064-1.341-0.543-1.341-1.437v-1.74h-0.398c-0.144,0-0.255-0.032-0.331-0.095c-0.077-0.064-0.117-0.157-0.117-0.28
				c0-0.121,0.04-0.215,0.117-0.279c0.076-0.063,0.188-0.096,0.331-0.096h0.398v-0.734c0-0.143,0.045-0.257,0.136-0.343
				c0.09-0.085,0.213-0.128,0.367-0.128c0.148,0,0.269,0.043,0.358,0.128c0.091,0.086,0.136,0.2,0.136,0.343v0.734h0.68
				c0.143,0,0.253,0.032,0.33,0.096c0.077,0.064,0.116,0.158,0.116,0.279c0,0.123-0.039,0.216-0.116,0.28
				c-0.077,0.063-0.188,0.095-0.33,0.095h-0.68v1.812c0,0.395,0.182,0.604,0.544,0.631l0.215,0.017
				C14.995,47.897,15.129,48.018,15.129,48.24z"/>
			<path fill="#099547" d="M15.711,43.735c-0.106-0.099-0.159-0.228-0.159-0.387s0.053-0.287,0.159-0.384
				c0.106-0.096,0.251-0.143,0.432-0.143c0.175,0,0.318,0.047,0.427,0.143c0.108,0.097,0.164,0.225,0.164,0.384
				s-0.054,0.288-0.16,0.387s-0.251,0.148-0.431,0.148C15.962,43.884,15.817,43.834,15.711,43.735z M15.787,48.5
				c-0.093-0.082-0.14-0.201-0.14-0.354v-3.081c0-0.154,0.047-0.271,0.14-0.352c0.093-0.079,0.212-0.119,0.355-0.119
				c0.143,0,0.263,0.04,0.359,0.119c0.096,0.08,0.143,0.197,0.143,0.352v3.081c0,0.153-0.047,0.272-0.143,0.354
				c-0.097,0.083-0.217,0.124-0.359,0.124C15.999,48.624,15.88,48.583,15.787,48.5z"/>
			<path fill="#099547" d="M21.026,48.2c0,0.118-0.038,0.209-0.112,0.275s-0.186,0.1-0.335,0.1h-2.665
				c-0.134,0-0.242-0.042-0.328-0.127c-0.084-0.085-0.128-0.187-0.128-0.303c0-0.123,0.049-0.24,0.145-0.353l2.051-2.37h-1.779
				c-0.149,0-0.261-0.032-0.335-0.095c-0.075-0.064-0.112-0.157-0.112-0.28c0-0.121,0.037-0.215,0.112-0.279
				c0.074-0.063,0.186-0.096,0.335-0.096h2.577c0.139,0,0.249,0.041,0.331,0.124c0.083,0.082,0.124,0.185,0.124,0.308
				c0,0.128-0.045,0.244-0.136,0.351l-2.059,2.37h1.867C20.877,47.825,21.026,47.951,21.026,48.2z"/>
			<path fill="#099547" d="M24.605,44.98C24.869,45.249,25,45.657,25,46.206v1.946c0,0.144-0.042,0.257-0.127,0.34
				c-0.085,0.082-0.203,0.124-0.352,0.124c-0.138,0-0.251-0.044-0.339-0.128c-0.088-0.086-0.132-0.197-0.132-0.336v-0.176
				c-0.091,0.208-0.232,0.37-0.427,0.487c-0.194,0.116-0.42,0.175-0.675,0.175c-0.261,0-0.497-0.052-0.71-0.159
				c-0.213-0.106-0.381-0.252-0.503-0.439c-0.122-0.186-0.184-0.393-0.184-0.621c0-0.288,0.073-0.514,0.22-0.679
				s0.384-0.285,0.714-0.359s0.784-0.111,1.365-0.111h0.199v-0.184c0-0.262-0.056-0.451-0.167-0.571
				c-0.112-0.119-0.293-0.179-0.544-0.179c-0.153,0-0.311,0.021-0.471,0.067c-0.159,0.045-0.348,0.11-0.565,0.196
				c-0.14,0.068-0.24,0.104-0.304,0.104c-0.096,0-0.175-0.035-0.235-0.104c-0.062-0.069-0.092-0.16-0.092-0.271
				c0-0.091,0.021-0.169,0.067-0.235c0.045-0.066,0.121-0.129,0.229-0.188c0.186-0.101,0.407-0.18,0.665-0.239
				c0.259-0.059,0.513-0.088,0.763-0.088C23.938,44.577,24.342,44.712,24.605,44.98z M23.799,47.654
				c0.168-0.179,0.252-0.408,0.252-0.691v-0.167h-0.144c-0.356,0-0.634,0.017-0.83,0.048c-0.196,0.032-0.338,0.088-0.423,0.168
				c-0.086,0.079-0.128,0.188-0.128,0.326c0,0.172,0.06,0.311,0.18,0.42c0.119,0.108,0.268,0.163,0.443,0.163
				C23.415,47.921,23.632,47.832,23.799,47.654z"/>
			<path fill="#099547" d="M26.72,48.393c-0.296-0.165-0.522-0.399-0.682-0.703c-0.16-0.303-0.24-0.657-0.24-1.062
				s0.084-0.762,0.251-1.073c0.168-0.311,0.403-0.552,0.707-0.722c0.303-0.17,0.651-0.256,1.045-0.256
				c0.207,0,0.417,0.029,0.627,0.088c0.21,0.06,0.395,0.139,0.554,0.239c0.171,0.111,0.256,0.253,0.256,0.424
				c0,0.116-0.028,0.211-0.083,0.283c-0.057,0.071-0.13,0.107-0.22,0.107c-0.06,0-0.119-0.014-0.184-0.04
				c-0.063-0.026-0.128-0.059-0.191-0.096c-0.118-0.069-0.229-0.123-0.336-0.164c-0.105-0.04-0.229-0.059-0.367-0.059
				c-0.33,0-0.583,0.107-0.762,0.322c-0.179,0.216-0.268,0.525-0.268,0.93c0,0.399,0.089,0.706,0.268,0.922s0.432,0.323,0.762,0.323
				c0.134,0,0.251-0.021,0.356-0.061c0.104-0.039,0.219-0.094,0.347-0.163c0.079-0.048,0.148-0.084,0.207-0.107
				c0.059-0.024,0.117-0.036,0.176-0.036c0.085,0,0.156,0.037,0.216,0.111c0.058,0.075,0.087,0.168,0.087,0.28
				c0,0.09-0.02,0.169-0.06,0.235s-0.105,0.125-0.195,0.179c-0.165,0.106-0.356,0.19-0.574,0.251
				c-0.219,0.062-0.442,0.092-0.671,0.092C27.356,48.639,27.015,48.558,26.72,48.393z"/>
			<path fill="#099547" d="M29.972,43.735c-0.106-0.099-0.159-0.228-0.159-0.387s0.053-0.287,0.159-0.384
				c0.106-0.096,0.25-0.143,0.432-0.143c0.175,0,0.317,0.047,0.427,0.143c0.108,0.097,0.163,0.225,0.163,0.384
				s-0.053,0.288-0.159,0.387c-0.107,0.099-0.251,0.148-0.431,0.148C30.222,43.884,30.078,43.834,29.972,43.735z M30.048,48.5
				c-0.094-0.082-0.14-0.201-0.14-0.354v-3.081c0-0.154,0.046-0.271,0.14-0.352c0.093-0.079,0.212-0.119,0.355-0.119
				c0.143,0,0.263,0.04,0.359,0.119c0.095,0.08,0.143,0.197,0.143,0.352v3.081c0,0.153-0.048,0.272-0.143,0.354
				c-0.097,0.083-0.217,0.124-0.359,0.124C30.26,48.624,30.141,48.583,30.048,48.5z"/>
			<path fill="#099547" d="M32.665,48.393c-0.301-0.165-0.534-0.402-0.699-0.711c-0.165-0.308-0.247-0.667-0.247-1.077
				s0.082-0.768,0.247-1.073s0.398-0.542,0.699-0.706c0.3-0.165,0.65-0.248,1.049-0.248c0.399,0,0.749,0.083,1.05,0.248
				c0.301,0.164,0.532,0.4,0.694,0.706s0.244,0.663,0.244,1.073s-0.082,0.77-0.244,1.077c-0.162,0.309-0.394,0.546-0.694,0.711
				s-0.65,0.246-1.05,0.246C33.315,48.639,32.965,48.558,32.665,48.393z M34.448,47.547c0.17-0.214,0.256-0.527,0.256-0.942
				c0-0.41-0.086-0.723-0.256-0.938c-0.17-0.216-0.415-0.323-0.734-0.323c-0.318,0-0.564,0.107-0.738,0.323
				c-0.173,0.215-0.259,0.527-0.259,0.938c0,0.415,0.085,0.729,0.255,0.942c0.17,0.212,0.416,0.318,0.734,0.318
				C34.031,47.865,34.278,47.759,34.448,47.547z M33.738,44.202c-0.074,0-0.137-0.025-0.188-0.075
				c-0.051-0.051-0.076-0.11-0.076-0.181c0-0.058,0.021-0.116,0.063-0.175l0.774-1.029c0.123-0.159,0.264-0.24,0.424-0.24
				c0.116,0,0.216,0.042,0.299,0.124c0.082,0.083,0.123,0.18,0.123,0.292c0,0.148-0.071,0.276-0.215,0.383l-1.03,0.838
				C33.855,44.181,33.797,44.202,33.738,44.202z"/>
			<path fill="#099547" d="M39.835,44.977c0.229,0.266,0.343,0.668,0.343,1.205v1.964c0,0.148-0.043,0.265-0.131,0.351
				c-0.089,0.084-0.209,0.128-0.363,0.128s-0.276-0.044-0.367-0.128c-0.09-0.086-0.136-0.202-0.136-0.351v-1.908
				c0-0.303-0.057-0.524-0.172-0.662c-0.114-0.139-0.294-0.207-0.538-0.207c-0.287,0-0.518,0.09-0.69,0.271
				c-0.174,0.181-0.26,0.423-0.26,0.726v1.781c0,0.148-0.046,0.265-0.135,0.351c-0.091,0.084-0.214,0.128-0.367,0.128
				c-0.155,0-0.275-0.044-0.363-0.128c-0.089-0.086-0.132-0.202-0.132-0.351v-3.09c0-0.138,0.045-0.249,0.136-0.334
				c0.09-0.086,0.212-0.128,0.367-0.128c0.138,0,0.251,0.041,0.339,0.123c0.088,0.083,0.132,0.19,0.132,0.323v0.215
				c0.133-0.217,0.311-0.385,0.534-0.502s0.477-0.176,0.759-0.176C39.258,44.577,39.606,44.71,39.835,44.977z"/>
		</g>
	</g>
	<g>
		<g>
			<circle fill="none" stroke="#A8A7A7" stroke-width="0.6457" cx="69.231" cy="21.084" r="15.91"/>
			<g>
				<path fill="#A8A7A7" d="M70.146,18.379h0.399v0.398c0,0.658,0.535,1.193,1.193,1.193s1.193-0.535,1.193-1.193v-0.398h0.4
					c0.657,0,1.193-0.536,1.193-1.194s-0.536-1.193-1.193-1.193h-0.4v-0.399c0-0.658-0.535-1.194-1.193-1.194
					s-1.193,0.536-1.193,1.194v0.399h-0.399c-0.658,0-1.194,0.535-1.194,1.193S69.488,18.379,70.146,18.379z M70.146,16.736h0.772
					c0.206,0,0.373-0.166,0.373-0.373v-0.771c0-0.247,0.201-0.448,0.447-0.448c0.247,0,0.448,0.201,0.448,0.448v0.771
					c0,0.207,0.167,0.373,0.372,0.373h0.773c0.246,0,0.447,0.201,0.447,0.448s-0.201,0.447-0.447,0.447H72.56
					c-0.205,0-0.372,0.168-0.372,0.374v0.771c0,0.247-0.201,0.447-0.448,0.447c-0.246,0-0.447-0.2-0.447-0.447v-0.771
					c0-0.206-0.167-0.374-0.373-0.374h-0.772c-0.247,0-0.447-0.2-0.447-0.447S69.899,16.736,70.146,16.736z"/>
				<path fill="#A8A7A7" d="M77.475,17.184c-0.199-0.28-0.538-0.44-0.926-0.44h-0.676c-0.221-2.086-1.99-3.716-4.134-3.716
					s-3.912,1.63-4.134,3.716h-3.511c-0.24,0-0.466,0.062-0.662,0.177l-0.176-1.762c-0.02-0.191-0.18-0.336-0.371-0.336h-2.406
					c-0.206,0-0.373,0.166-0.373,0.373c0,0.206,0.167,0.373,0.373,0.373h2.067l0.262,2.607l0,0l0,0l0.648,6.402
					c0.042,0.408,0.263,0.775,0.578,1.022c-0.176,0.208-0.283,0.476-0.283,0.77v1.086c0,0.473,0.272,0.88,0.673,1.071
					c-0.022,0.11-0.034,0.223-0.034,0.338c0,0.918,0.746,1.664,1.663,1.664c0.918,0,1.664-0.746,1.664-1.664
					c0-0.074-0.006-0.148-0.015-0.221h2.735c-0.01,0.072-0.015,0.146-0.015,0.221c0,0.918,0.746,1.664,1.663,1.664
					s1.664-0.746,1.664-1.664c0-0.916-0.747-1.663-1.664-1.663c-0.557,0-1.05,0.275-1.352,0.696h-3.33
					c-0.302-0.421-0.795-0.696-1.352-0.696c-0.534,0-1.011,0.254-1.315,0.647c-0.143-0.073-0.24-0.223-0.24-0.394V26.37
					c0-0.245,0.198-0.442,0.442-0.442c0.001,0,0.002,0,0.004,0s0.004,0,0.006,0h8.724c0.722,0,1.469-0.535,1.701-1.217l2.217-6.509
					C77.718,17.832,77.675,17.462,77.475,17.184z M72.087,27.949c0.506,0,0.917,0.411,0.917,0.916c0,0.506-0.411,0.918-0.917,0.918
					s-0.917-0.412-0.917-0.918C71.17,28.36,71.581,27.949,72.087,27.949z M66.054,27.949c0.506,0,0.918,0.411,0.918,0.916
					c0,0.506-0.412,0.918-0.918,0.918s-0.917-0.412-0.917-0.918C65.137,28.36,65.548,27.949,66.054,27.949z M71.739,13.773
					c1.858,0,3.374,1.494,3.41,3.343l0,0l0,0c0.001,0.022,0.001,0.046,0.001,0.068c0,1.882-1.53,3.411-3.411,3.411
					s-3.411-1.529-3.411-3.411C68.328,15.304,69.858,13.773,71.739,13.773z M76.885,17.961l-2.216,6.509
					c-0.129,0.38-0.594,0.711-0.995,0.711H64.95c-0.369,0-0.713-0.31-0.75-0.677l-0.649-6.402l0,0V18.1
					c-0.017-0.165,0.031-0.32,0.136-0.436c0.102-0.113,0.246-0.175,0.408-0.175h3.499c0.156,2.15,1.956,3.853,4.146,3.853
					c2.19,0,3.989-1.702,4.146-3.853h0.664c0.146,0,0.261,0.046,0.319,0.128S76.934,17.821,76.885,17.961z"/>
			</g>
		</g>
		<g>
			<path fill="#A8A7A7" d="M58.793,48.208c0,0.123-0.05,0.224-0.147,0.304c-0.099,0.08-0.215,0.12-0.348,0.12
				c-0.085,0-0.166-0.021-0.243-0.061s-0.142-0.1-0.195-0.179l-1.062-1.612c-0.106-0.17-0.22-0.29-0.34-0.359
				c-0.119-0.069-0.274-0.104-0.466-0.104H55.21v1.787c0,0.16-0.045,0.286-0.136,0.38c-0.09,0.092-0.213,0.14-0.367,0.14
				s-0.278-0.048-0.371-0.14c-0.094-0.094-0.14-0.22-0.14-0.38v-4.669c0-0.153,0.044-0.273,0.132-0.358s0.208-0.127,0.363-0.127
				h1.994c0.639,0,1.125,0.142,1.457,0.426c0.332,0.285,0.498,0.696,0.498,1.233c0,0.437-0.123,0.794-0.371,1.073
				c-0.247,0.279-0.597,0.459-1.049,0.538c0.154,0.038,0.29,0.104,0.407,0.2s0.231,0.229,0.343,0.399l0.727,1.108
				C58.761,48.025,58.793,48.118,58.793,48.208z M57.396,45.308c0.181-0.146,0.271-0.371,0.271-0.674
				c0-0.309-0.09-0.534-0.271-0.675s-0.465-0.212-0.854-0.212h-1.341v1.779h1.341C56.932,45.526,57.216,45.454,57.396,45.308z"/>
			<path fill="#A8A7A7" d="M62.962,47.61c0.057,0.069,0.085,0.161,0.085,0.279c0,0.165-0.099,0.303-0.296,0.414
				c-0.182,0.102-0.386,0.183-0.614,0.243c-0.229,0.062-0.447,0.092-0.654,0.092c-0.629,0-1.125-0.18-1.492-0.542
				s-0.552-0.856-0.552-1.484c0-0.398,0.081-0.753,0.24-1.062s0.385-0.548,0.674-0.718c0.29-0.17,0.619-0.256,0.986-0.256
				c0.351,0,0.656,0.078,0.917,0.231c0.261,0.155,0.463,0.372,0.606,0.655c0.144,0.281,0.216,0.614,0.216,0.996
				c0,0.229-0.101,0.345-0.303,0.345H60.42c0.032,0.366,0.136,0.636,0.313,0.81c0.175,0.173,0.431,0.259,0.766,0.259
				c0.171,0,0.32-0.021,0.451-0.064c0.13-0.042,0.277-0.101,0.442-0.175c0.16-0.085,0.276-0.128,0.352-0.128
				C62.833,47.506,62.906,47.54,62.962,47.61z M60.712,45.535c-0.162,0.17-0.26,0.415-0.292,0.734h1.804
				c-0.01-0.325-0.091-0.57-0.239-0.738c-0.148-0.167-0.356-0.252-0.621-0.252C61.091,45.279,60.874,45.365,60.712,45.535z"/>
			<path fill="#A8A7A7" d="M67.555,44.722c0.091,0.085,0.136,0.198,0.136,0.343v3.152c0,0.611-0.17,1.074-0.51,1.388
				c-0.341,0.314-0.844,0.472-1.509,0.472c-0.58,0-1.064-0.109-1.452-0.328c-0.197-0.116-0.296-0.257-0.296-0.422
				c0-0.118,0.028-0.211,0.084-0.28s0.129-0.104,0.22-0.104c0.048,0,0.106,0.013,0.175,0.036c0.069,0.023,0.142,0.052,0.216,0.084
				c0.191,0.079,0.363,0.141,0.515,0.183c0.151,0.044,0.325,0.064,0.522,0.064c0.697,0,1.045-0.341,1.045-1.021v-0.51
				c-0.116,0.218-0.286,0.386-0.51,0.506c-0.223,0.119-0.479,0.18-0.767,0.18c-0.341,0-0.643-0.081-0.904-0.243
				c-0.264-0.162-0.47-0.39-0.619-0.683c-0.148-0.292-0.225-0.63-0.225-1.014c0-0.383,0.074-0.722,0.221-1.018
				c0.146-0.295,0.352-0.524,0.618-0.687c0.266-0.161,0.568-0.243,0.909-0.243c0.288,0,0.544,0.061,0.767,0.181
				c0.224,0.119,0.394,0.288,0.51,0.506v-0.208c0-0.138,0.046-0.249,0.137-0.334c0.09-0.086,0.21-0.128,0.358-0.128
				C67.345,44.594,67.464,44.636,67.555,44.722z M66.435,47.379c0.178-0.208,0.266-0.492,0.266-0.854
				c0-0.367-0.088-0.654-0.266-0.861c-0.18-0.208-0.428-0.312-0.747-0.312c-0.313,0-0.561,0.104-0.742,0.312
				c-0.181,0.207-0.271,0.494-0.271,0.861c0,0.362,0.091,0.646,0.271,0.854c0.182,0.207,0.429,0.311,0.742,0.311
				C66.007,47.689,66.255,47.586,66.435,47.379z"/>
			<path fill="#A8A7A7" d="M68.784,43.735c-0.107-0.099-0.159-0.228-0.159-0.387s0.052-0.287,0.159-0.384
				c0.106-0.096,0.25-0.143,0.431-0.143c0.176,0,0.318,0.047,0.427,0.143c0.108,0.097,0.164,0.225,0.164,0.384
				s-0.054,0.288-0.16,0.387s-0.25,0.148-0.431,0.148S68.891,43.834,68.784,43.735z M68.86,48.5c-0.094-0.082-0.14-0.201-0.14-0.354
				v-3.081c0-0.154,0.046-0.271,0.14-0.352c0.093-0.079,0.211-0.119,0.354-0.119s0.263,0.04,0.359,0.119
				c0.096,0.08,0.143,0.197,0.143,0.352v3.081c0,0.153-0.047,0.272-0.143,0.354c-0.097,0.083-0.216,0.124-0.359,0.124
				S68.953,48.583,68.86,48.5z"/>
			<path fill="#A8A7A7" d="M70.755,48.296c-0.171-0.101-0.255-0.244-0.255-0.431c0-0.106,0.029-0.193,0.087-0.26
				c0.059-0.066,0.131-0.1,0.216-0.1c0.09,0,0.215,0.043,0.375,0.128c0.17,0.08,0.326,0.141,0.467,0.184s0.32,0.064,0.539,0.064
				c0.223,0,0.397-0.037,0.522-0.112c0.125-0.074,0.188-0.178,0.188-0.312c0-0.091-0.025-0.162-0.075-0.215
				c-0.052-0.054-0.143-0.103-0.271-0.148c-0.131-0.045-0.329-0.097-0.595-0.154c-0.474-0.097-0.813-0.232-1.018-0.408
				c-0.206-0.176-0.308-0.417-0.308-0.726c0-0.234,0.068-0.445,0.208-0.635c0.138-0.189,0.328-0.335,0.57-0.438
				s0.518-0.156,0.825-0.156c0.225,0,0.439,0.028,0.646,0.084c0.208,0.056,0.394,0.138,0.559,0.243
				c0.171,0.106,0.256,0.247,0.256,0.424c0,0.106-0.029,0.194-0.088,0.268c-0.059,0.071-0.131,0.107-0.215,0.107
				c-0.059,0-0.116-0.013-0.172-0.036c-0.056-0.024-0.126-0.06-0.212-0.108c-0.153-0.079-0.287-0.14-0.399-0.18
				c-0.111-0.039-0.249-0.06-0.414-0.06c-0.197,0-0.353,0.041-0.467,0.12s-0.172,0.189-0.172,0.327c0,0.133,0.059,0.234,0.176,0.304
				s0.343,0.138,0.678,0.207c0.356,0.074,0.636,0.16,0.838,0.255c0.202,0.096,0.348,0.216,0.435,0.359
				c0.089,0.144,0.132,0.327,0.132,0.551c0,0.361-0.149,0.651-0.45,0.869c-0.301,0.219-0.701,0.327-1.201,0.327
				C71.579,48.639,71.111,48.525,70.755,48.296z"/>
			<path fill="#A8A7A7" d="M77.004,48.24c0,0.128-0.052,0.225-0.155,0.291s-0.252,0.095-0.442,0.085L76.189,48.6
				c-0.893-0.064-1.341-0.543-1.341-1.437v-1.74H74.45c-0.144,0-0.254-0.032-0.331-0.095c-0.077-0.064-0.116-0.157-0.116-0.28
				c0-0.121,0.039-0.215,0.116-0.279c0.077-0.063,0.188-0.096,0.331-0.096h0.398v-0.734c0-0.143,0.046-0.257,0.136-0.343
				c0.091-0.085,0.214-0.128,0.367-0.128c0.149,0,0.269,0.043,0.359,0.128c0.091,0.086,0.136,0.2,0.136,0.343v0.734h0.679
				c0.143,0,0.254,0.032,0.331,0.096c0.076,0.064,0.115,0.158,0.115,0.279c0,0.123-0.039,0.216-0.115,0.28
				c-0.077,0.063-0.188,0.095-0.331,0.095h-0.679v1.812c0,0.395,0.181,0.604,0.543,0.631l0.216,0.017
				C76.87,47.897,77.004,48.018,77.004,48.24z"/>
			<path fill="#A8A7A7" d="M80.027,44.681c0.08,0.069,0.12,0.173,0.12,0.313c0,0.143-0.034,0.249-0.104,0.318
				s-0.194,0.115-0.375,0.136l-0.239,0.024c-0.314,0.031-0.545,0.138-0.69,0.318c-0.146,0.182-0.22,0.408-0.22,0.679v1.677
				c0,0.153-0.048,0.272-0.144,0.354c-0.097,0.083-0.216,0.124-0.358,0.124c-0.145,0-0.263-0.041-0.355-0.124
				c-0.094-0.082-0.14-0.201-0.14-0.354v-3.09c0-0.148,0.046-0.263,0.14-0.343c0.093-0.079,0.208-0.119,0.347-0.119
				c0.138,0,0.25,0.038,0.335,0.115s0.128,0.188,0.128,0.331v0.32c0.101-0.234,0.252-0.416,0.451-0.544
				c0.198-0.127,0.421-0.199,0.666-0.215l0.112-0.008C79.839,44.582,79.948,44.612,80.027,44.681z"/>
			<path fill="#A8A7A7" d="M81.229,48.393c-0.301-0.165-0.534-0.402-0.699-0.711c-0.165-0.308-0.247-0.667-0.247-1.077
				s0.082-0.768,0.247-1.073s0.398-0.542,0.699-0.706c0.3-0.165,0.65-0.248,1.049-0.248c0.399,0,0.749,0.083,1.05,0.248
				c0.301,0.164,0.532,0.4,0.694,0.706s0.244,0.663,0.244,1.073s-0.082,0.77-0.244,1.077c-0.162,0.309-0.394,0.546-0.694,0.711
				s-0.65,0.246-1.05,0.246C81.879,48.639,81.528,48.558,81.229,48.393z M83.012,47.547c0.17-0.214,0.256-0.527,0.256-0.942
				c0-0.41-0.086-0.723-0.256-0.938c-0.17-0.216-0.415-0.323-0.734-0.323c-0.318,0-0.564,0.107-0.738,0.323
				c-0.173,0.215-0.259,0.527-0.259,0.938c0,0.415,0.085,0.729,0.255,0.942c0.17,0.212,0.416,0.318,0.734,0.318
				C82.595,47.865,82.842,47.759,83.012,47.547z"/>
		</g>
	</g>
	<g>
		<g>
			<path fill="#A8A7A7" d="M143.074,49.074c-0.408-0.233-0.719-0.569-0.938-1.005c-0.219-0.437-0.328-0.947-0.328-1.532
				c0-0.586,0.109-1.095,0.328-1.528s0.529-0.768,0.938-1.002c0.408-0.233,0.883-0.351,1.424-0.351c0.352,0,0.682,0.052,0.99,0.155
				s0.582,0.254,0.822,0.451c0.068,0.053,0.117,0.109,0.143,0.168c0.027,0.059,0.041,0.13,0.041,0.215
				c0,0.117-0.033,0.216-0.096,0.295c-0.064,0.08-0.143,0.12-0.232,0.12c-0.105,0-0.215-0.036-0.326-0.112
				c-0.229-0.17-0.441-0.287-0.639-0.354c-0.197-0.066-0.416-0.1-0.654-0.1c-0.553,0-0.973,0.173-1.258,0.519
				s-0.426,0.854-0.426,1.524c0,0.676,0.141,1.187,0.426,1.532c0.285,0.347,0.705,0.519,1.258,0.519
				c0.229,0,0.439-0.034,0.635-0.104c0.193-0.068,0.412-0.187,0.658-0.352c0.053-0.032,0.105-0.059,0.16-0.079
				c0.053-0.021,0.107-0.032,0.166-0.032c0.09,0,0.168,0.04,0.232,0.119c0.063,0.08,0.096,0.179,0.096,0.296
				c0,0.08-0.014,0.15-0.041,0.211c-0.025,0.062-0.074,0.119-0.143,0.172c-0.24,0.196-0.514,0.348-0.822,0.451
				s-0.639,0.155-0.99,0.155C143.957,49.426,143.482,49.309,143.074,49.074z"/>
			<path fill="#A8A7A7" d="M149.813,45.46c0.08,0.069,0.121,0.173,0.121,0.312c0,0.143-0.035,0.249-0.104,0.318
				c-0.07,0.069-0.195,0.115-0.377,0.136l-0.238,0.024c-0.314,0.031-0.545,0.138-0.689,0.319c-0.148,0.181-0.221,0.407-0.221,0.678
				v1.677c0,0.153-0.047,0.272-0.143,0.354c-0.098,0.083-0.217,0.124-0.359,0.124c-0.145,0-0.264-0.041-0.355-0.124
				c-0.094-0.082-0.141-0.201-0.141-0.354v-3.089c0-0.149,0.047-0.264,0.141-0.344c0.092-0.079,0.209-0.119,0.348-0.119
				c0.137,0,0.248,0.038,0.334,0.115c0.084,0.078,0.129,0.188,0.129,0.331v0.32c0.1-0.234,0.25-0.416,0.449-0.543
				c0.199-0.128,0.422-0.199,0.668-0.216l0.111-0.008C149.623,45.361,149.734,45.391,149.813,45.46z"/>
			<path fill="#A8A7A7" d="M153.592,48.389c0.057,0.069,0.084,0.162,0.084,0.279c0,0.165-0.098,0.303-0.295,0.414
				c-0.182,0.102-0.385,0.183-0.615,0.244c-0.229,0.061-0.445,0.091-0.652,0.091c-0.629,0-1.127-0.18-1.494-0.542
				s-0.551-0.856-0.551-1.484c0-0.398,0.08-0.752,0.24-1.062c0.16-0.309,0.385-0.548,0.674-0.718
				c0.291-0.17,0.619-0.256,0.986-0.256c0.352,0,0.656,0.078,0.918,0.231c0.26,0.155,0.461,0.372,0.605,0.655
				c0.145,0.281,0.215,0.614,0.215,0.997c0,0.229-0.1,0.344-0.303,0.344h-2.354c0.031,0.367,0.135,0.637,0.311,0.81
				s0.432,0.26,0.766,0.26c0.172,0,0.322-0.021,0.453-0.064c0.129-0.043,0.277-0.101,0.441-0.176
				c0.16-0.085,0.277-0.127,0.352-0.127C153.463,48.285,153.537,48.319,153.592,48.389z M151.342,46.313
				c-0.162,0.17-0.26,0.415-0.291,0.734h1.803c-0.01-0.325-0.09-0.57-0.238-0.738c-0.15-0.167-0.357-0.252-0.623-0.252
				C151.721,46.058,151.504,46.144,151.342,46.313z"/>
			<path fill="#A8A7A7" d="M158.145,43.816c0.096,0.084,0.145,0.196,0.145,0.335v4.772c0,0.143-0.045,0.257-0.135,0.343
				c-0.092,0.084-0.211,0.128-0.359,0.128c-0.15,0-0.27-0.044-0.359-0.128c-0.092-0.086-0.137-0.2-0.137-0.343v-0.2
				c-0.117,0.218-0.285,0.388-0.506,0.511c-0.223,0.123-0.473,0.183-0.754,0.183c-0.336,0-0.635-0.084-0.898-0.254
				c-0.264-0.171-0.469-0.411-0.613-0.723c-0.148-0.312-0.221-0.67-0.221-1.074c0-0.403,0.072-0.757,0.221-1.061
				c0.145-0.303,0.348-0.537,0.609-0.702c0.26-0.165,0.561-0.248,0.902-0.248c0.281,0,0.531,0.059,0.75,0.177
				c0.217,0.116,0.385,0.281,0.502,0.494v-1.892c0-0.133,0.043-0.24,0.133-0.323c0.086-0.082,0.205-0.123,0.354-0.123
				C157.928,43.688,158.049,43.73,158.145,43.816z M157.039,48.317c0.174-0.219,0.26-0.53,0.26-0.935s-0.086-0.714-0.26-0.93
				c-0.172-0.215-0.416-0.323-0.729-0.323c-0.32,0-0.566,0.107-0.742,0.319c-0.176,0.213-0.264,0.519-0.264,0.917
				c0,0.404,0.088,0.719,0.264,0.942s0.42,0.335,0.732,0.335C156.621,48.644,156.867,48.535,157.039,48.317z"/>
			<path fill="#A8A7A7" d="M162.625,48.389c0.057,0.069,0.084,0.162,0.084,0.279c0,0.165-0.098,0.303-0.295,0.414
				c-0.182,0.102-0.385,0.183-0.615,0.244c-0.229,0.061-0.445,0.091-0.652,0.091c-0.629,0-1.127-0.18-1.494-0.542
				s-0.551-0.856-0.551-1.484c0-0.398,0.08-0.752,0.24-1.062c0.16-0.309,0.385-0.548,0.674-0.718
				c0.291-0.17,0.619-0.256,0.986-0.256c0.352,0,0.656,0.078,0.918,0.231c0.26,0.155,0.461,0.372,0.605,0.655
				c0.145,0.281,0.215,0.614,0.215,0.997c0,0.229-0.1,0.344-0.303,0.344h-2.354c0.031,0.367,0.135,0.637,0.311,0.81
				s0.432,0.26,0.766,0.26c0.172,0,0.322-0.021,0.453-0.064c0.129-0.043,0.277-0.101,0.441-0.176
				c0.16-0.085,0.277-0.127,0.352-0.127C162.496,48.285,162.57,48.319,162.625,48.389z M160.375,46.313
				c-0.162,0.17-0.26,0.415-0.291,0.734h1.803c-0.01-0.325-0.09-0.57-0.238-0.738c-0.15-0.167-0.357-0.252-0.623-0.252
				C160.754,46.058,160.537,46.144,160.375,46.313z"/>
			<path fill="#A8A7A7" d="M166.867,45.755c0.229,0.266,0.342,0.668,0.342,1.205v1.964c0,0.148-0.043,0.266-0.131,0.351
				s-0.209,0.128-0.361,0.128c-0.156,0-0.277-0.043-0.367-0.128c-0.092-0.085-0.137-0.202-0.137-0.351v-1.908
				c0-0.303-0.057-0.524-0.172-0.662c-0.115-0.139-0.293-0.207-0.539-0.207c-0.287,0-0.518,0.091-0.689,0.271
				c-0.174,0.181-0.26,0.424-0.26,0.727v1.78c0,0.148-0.045,0.266-0.135,0.351c-0.092,0.085-0.213,0.128-0.367,0.128
				s-0.275-0.043-0.363-0.128s-0.133-0.202-0.133-0.351v-3.089c0-0.138,0.047-0.25,0.137-0.335c0.09-0.086,0.213-0.128,0.367-0.128
				c0.139,0,0.25,0.041,0.34,0.124c0.086,0.082,0.131,0.189,0.131,0.322v0.216c0.133-0.218,0.311-0.386,0.533-0.502
				c0.225-0.118,0.479-0.177,0.76-0.177C166.289,45.355,166.639,45.488,166.867,45.755z"/>
			<path fill="#A8A7A7" d="M168.93,49.171c-0.295-0.165-0.523-0.399-0.682-0.703c-0.16-0.303-0.24-0.656-0.24-1.061
				c0-0.405,0.084-0.763,0.252-1.073c0.168-0.312,0.402-0.553,0.707-0.723c0.303-0.17,0.65-0.256,1.045-0.256
				c0.207,0,0.416,0.029,0.625,0.088c0.211,0.06,0.395,0.139,0.555,0.239c0.17,0.111,0.256,0.254,0.256,0.424
				c0,0.116-0.027,0.211-0.084,0.283c-0.057,0.071-0.129,0.107-0.219,0.107c-0.059,0-0.119-0.014-0.184-0.04
				s-0.129-0.059-0.191-0.096c-0.117-0.069-0.23-0.123-0.336-0.163c-0.105-0.041-0.229-0.06-0.367-0.06
				c-0.33,0-0.584,0.107-0.762,0.322c-0.18,0.216-0.268,0.525-0.268,0.93c0,0.399,0.088,0.706,0.268,0.923
				c0.178,0.215,0.432,0.322,0.762,0.322c0.133,0,0.252-0.02,0.355-0.061c0.104-0.039,0.219-0.093,0.348-0.163
				c0.08-0.048,0.148-0.084,0.207-0.107s0.117-0.036,0.176-0.036c0.084,0,0.156,0.037,0.215,0.111
				c0.059,0.075,0.088,0.168,0.088,0.28c0,0.091-0.02,0.169-0.061,0.235c-0.039,0.066-0.104,0.126-0.195,0.179
				c-0.164,0.106-0.355,0.19-0.574,0.252c-0.217,0.061-0.441,0.091-0.67,0.091C169.566,49.417,169.225,49.336,168.93,49.171z"/>
			<path fill="#A8A7A7" d="M172.182,44.514c-0.107-0.099-0.158-0.227-0.158-0.387c0-0.159,0.051-0.287,0.158-0.384
				c0.107-0.095,0.25-0.143,0.432-0.143c0.174,0,0.318,0.048,0.426,0.143c0.109,0.097,0.164,0.225,0.164,0.384
				c0,0.16-0.053,0.288-0.16,0.387c-0.105,0.099-0.25,0.148-0.43,0.148C172.432,44.662,172.289,44.612,172.182,44.514z
				 M172.258,49.278c-0.094-0.082-0.141-0.201-0.141-0.354v-3.081c0-0.154,0.047-0.271,0.141-0.352
				c0.092-0.079,0.211-0.119,0.355-0.119c0.143,0,0.262,0.04,0.359,0.119c0.096,0.08,0.143,0.197,0.143,0.352v3.081
				c0,0.153-0.047,0.272-0.143,0.354c-0.098,0.083-0.217,0.124-0.359,0.124C172.469,49.402,172.35,49.361,172.258,49.278z"/>
			<path fill="#A8A7A7" d="M177.045,45.759c0.264,0.269,0.395,0.678,0.395,1.226v1.946c0,0.144-0.041,0.258-0.127,0.34
				c-0.084,0.082-0.203,0.124-0.352,0.124c-0.137,0-0.25-0.044-0.338-0.128c-0.088-0.086-0.133-0.197-0.133-0.336v-0.175
				c-0.09,0.207-0.232,0.37-0.426,0.486c-0.195,0.117-0.42,0.175-0.676,0.175c-0.26,0-0.496-0.052-0.709-0.158
				c-0.213-0.107-0.381-0.253-0.504-0.439c-0.121-0.187-0.184-0.394-0.184-0.622c0-0.288,0.074-0.514,0.221-0.679
				s0.383-0.285,0.713-0.359s0.785-0.111,1.365-0.111h0.199v-0.184c0-0.261-0.055-0.451-0.166-0.571
				c-0.113-0.119-0.293-0.179-0.543-0.179c-0.154,0-0.313,0.022-0.471,0.067c-0.16,0.045-0.35,0.11-0.566,0.196
				c-0.139,0.068-0.24,0.104-0.305,0.104c-0.096,0-0.174-0.035-0.234-0.104c-0.063-0.069-0.092-0.16-0.092-0.271
				c0-0.091,0.021-0.169,0.066-0.235s0.123-0.129,0.229-0.188c0.186-0.101,0.408-0.18,0.666-0.239
				c0.258-0.059,0.512-0.088,0.762-0.088C176.379,45.355,176.781,45.49,177.045,45.759z M176.238,48.433
				c0.168-0.179,0.252-0.408,0.252-0.691v-0.166h-0.143c-0.357,0-0.633,0.016-0.83,0.047c-0.197,0.032-0.338,0.089-0.424,0.168
				c-0.084,0.079-0.127,0.189-0.127,0.327c0,0.171,0.059,0.31,0.18,0.419c0.119,0.108,0.268,0.163,0.443,0.163
				C175.855,48.699,176.072,48.61,176.238,48.433z"/>
			<path fill="#A8A7A7" d="M178.594,49.278c-0.094-0.082-0.141-0.201-0.141-0.354v-4.765c0-0.154,0.047-0.271,0.141-0.352
				c0.092-0.079,0.211-0.119,0.355-0.119c0.143,0,0.262,0.04,0.359,0.119c0.094,0.08,0.143,0.197,0.143,0.352v4.765
				c0,0.153-0.049,0.272-0.143,0.354c-0.098,0.083-0.217,0.124-0.359,0.124C178.805,49.402,178.686,49.361,178.594,49.278z"/>
			<path fill="#A8A7A7" d="M183.789,48.389c0.057,0.069,0.084,0.162,0.084,0.279c0,0.165-0.098,0.303-0.295,0.414
				c-0.182,0.102-0.387,0.183-0.615,0.244c-0.229,0.061-0.447,0.091-0.654,0.091c-0.629,0-1.125-0.18-1.492-0.542
				s-0.551-0.856-0.551-1.484c0-0.398,0.08-0.752,0.24-1.062c0.158-0.309,0.385-0.548,0.674-0.718s0.619-0.256,0.986-0.256
				c0.35,0,0.656,0.078,0.916,0.231c0.262,0.155,0.463,0.372,0.607,0.655c0.143,0.281,0.215,0.614,0.215,0.997
				c0,0.229-0.1,0.344-0.303,0.344h-2.355c0.033,0.367,0.137,0.637,0.313,0.81s0.43,0.26,0.766,0.26c0.172,0,0.32-0.021,0.451-0.064
				s0.277-0.101,0.443-0.176c0.16-0.085,0.275-0.127,0.352-0.127C183.66,48.285,183.732,48.319,183.789,48.389z M181.539,46.313
				c-0.162,0.17-0.26,0.415-0.293,0.734h1.805c-0.01-0.325-0.092-0.57-0.24-0.738c-0.148-0.167-0.355-0.252-0.621-0.252
				C181.918,46.058,181.701,46.144,181.539,46.313z"/>
			<path fill="#A8A7A7" d="M184.727,49.074c-0.172-0.101-0.256-0.244-0.256-0.431c0-0.106,0.029-0.192,0.088-0.259
				s0.131-0.1,0.215-0.1c0.09,0,0.215,0.042,0.375,0.127c0.17,0.08,0.326,0.142,0.467,0.184c0.141,0.043,0.32,0.064,0.539,0.064
				c0.223,0,0.396-0.037,0.523-0.112c0.125-0.074,0.188-0.178,0.188-0.312c0-0.091-0.025-0.162-0.076-0.215
				c-0.051-0.054-0.143-0.103-0.271-0.148c-0.131-0.045-0.328-0.096-0.594-0.154c-0.475-0.097-0.814-0.232-1.02-0.407
				c-0.205-0.177-0.307-0.418-0.307-0.727c0-0.234,0.068-0.445,0.207-0.635s0.33-0.335,0.57-0.438
				c0.244-0.104,0.52-0.156,0.826-0.156c0.225,0,0.439,0.028,0.646,0.084c0.207,0.057,0.395,0.138,0.559,0.243
				c0.172,0.106,0.256,0.248,0.256,0.424c0,0.106-0.029,0.195-0.088,0.268c-0.059,0.071-0.131,0.107-0.215,0.107
				c-0.059,0-0.115-0.012-0.172-0.036c-0.055-0.024-0.125-0.06-0.211-0.107c-0.154-0.08-0.289-0.14-0.4-0.181
				c-0.111-0.039-0.248-0.059-0.414-0.059c-0.197,0-0.354,0.04-0.467,0.119c-0.115,0.079-0.172,0.189-0.172,0.327
				c0,0.133,0.059,0.234,0.176,0.304s0.344,0.138,0.678,0.207c0.357,0.074,0.637,0.16,0.838,0.256
				c0.203,0.096,0.348,0.215,0.436,0.358c0.088,0.145,0.131,0.327,0.131,0.551c0,0.362-0.148,0.651-0.449,0.87
				c-0.301,0.218-0.701,0.326-1.201,0.326C185.551,49.417,185.082,49.304,184.727,49.074z"/>
		</g>
		<g>
			<g>
				<g>
					<g>
						<path fill="#A8A7A7" d="M173.881,18.842l-6.076-6.077c-0.328-0.328-0.766-0.509-1.232-0.509c-0.465,0-0.904,0.181-1.23,0.509
							l-9.633,9.632c-0.328,0.329-0.51,0.766-0.51,1.232c0,0.466,0.182,0.904,0.51,1.231l0.748,0.75l0.002,0.001l0,0l5.035,5.035
							h-0.697c-0.221,0-0.398,0.179-0.398,0.399c0,0.222,0.178,0.399,0.398,0.399h2.219h0.002h0.002h5.773
							c0.221,0,0.4-0.178,0.4-0.399c0-0.221-0.18-0.399-0.4-0.399h-4.252l9.34-9.341C174.561,20.627,174.561,19.521,173.881,18.842z
							 M173.316,20.74l-9.633,9.633c-0.176,0.176-0.412,0.273-0.664,0.273h-0.004c-0.252,0-0.488-0.098-0.664-0.273l-5.045-5.045
							l9.25-9.251c0.156-0.155,0.156-0.409,0-0.565s-0.41-0.156-0.566,0l-9.25,9.25l-0.467-0.466
							c-0.178-0.177-0.273-0.414-0.273-0.667s0.096-0.489,0.273-0.666l9.633-9.633c0.178-0.177,0.414-0.274,0.666-0.274
							c0.254,0,0.49,0.098,0.666,0.274l2.164,2.163l-9.25,9.251c-0.156,0.155-0.156,0.409,0,0.565
							c0.078,0.077,0.18,0.117,0.281,0.117c0.104,0,0.205-0.04,0.283-0.118l9.25-9.25l3.35,3.349
							C173.684,19.774,173.684,20.372,173.316,20.74z"/>
						<path fill="#A8A7A7" d="M165.051,23.803c-0.156-0.156-0.41-0.156-0.566,0l-3.145,3.146c-0.158,0.156-0.158,0.409,0,0.565
							c0.078,0.078,0.18,0.117,0.281,0.117c0.104,0,0.205-0.04,0.283-0.117l3.146-3.146
							C165.207,24.213,165.207,23.959,165.051,23.803z"/>
						<path fill="#A8A7A7" d="M163.76,26.789l-1.291,1.291c-0.154,0.156-0.154,0.409,0,0.564c0.078,0.078,0.182,0.117,0.283,0.117
							c0.104,0,0.205-0.039,0.283-0.117l1.289-1.289c0.158-0.157,0.158-0.41,0-0.566C164.17,26.634,163.916,26.634,163.76,26.789z"
							/>
						<path fill="#A8A7A7" d="M164.947,25.602l-0.17,0.17c-0.154,0.156-0.154,0.409,0,0.565c0.078,0.079,0.182,0.118,0.283,0.118
							s0.205-0.039,0.283-0.118l0.17-0.169c0.154-0.156,0.154-0.41,0-0.566C165.357,25.445,165.104,25.445,164.947,25.602z"/>
						<path fill="#A8A7A7" d="M170.457,18.395c-0.074-0.074-0.176-0.116-0.281-0.116s-0.207,0.042-0.283,0.116l-1.695,1.697
							c-0.076,0.075-0.117,0.176-0.117,0.282s0.041,0.208,0.117,0.282l1.131,1.131c0.078,0.079,0.18,0.117,0.281,0.117
							c0.104,0,0.205-0.038,0.283-0.117l1.697-1.696c0.154-0.155,0.154-0.409,0-0.564L170.457,18.395z M169.609,20.939l-0.564-0.565
							l1.131-1.13l0.564,0.564L169.609,20.939z"/>
						<path fill="#A8A7A7" d="M167.207,15.262c0.102,0,0.205-0.039,0.283-0.117l0.17-0.17c0.154-0.156,0.154-0.41,0-0.565
							c-0.156-0.156-0.41-0.156-0.566,0l-0.17,0.17c-0.156,0.156-0.156,0.409,0,0.565C167.002,15.223,167.105,15.262,167.207,15.262
							z"/>
						<path fill="#A8A7A7" d="M159.219,25.677l-0.17,0.169c-0.156,0.156-0.156,0.41,0,0.566c0.078,0.078,0.182,0.117,0.283,0.117
							s0.205-0.039,0.283-0.117l0.168-0.17c0.156-0.156,0.156-0.409,0-0.565S159.375,25.521,159.219,25.677z"/>
					</g>
				</g>
			</g>
			<g>
				<g>
					<g>
						<circle fill="none" stroke="#A8A7A7" stroke-width="0.6457" cx="164.796" cy="21.084" r="15.909"/>
					</g>
				</g>
			</g>
		</g>
	</g>
	<g>
		<g>
			<path fill="#A8A7A7" d="M108.164,48.484c-0.094-0.094-0.139-0.22-0.139-0.38v-4.669c0-0.153,0.043-0.273,0.131-0.358
				s0.209-0.127,0.363-0.127h1.963c0.602,0,1.07,0.149,1.404,0.45c0.336,0.301,0.504,0.723,0.504,1.265
				c0,0.543-0.168,0.966-0.504,1.27c-0.334,0.303-0.803,0.454-1.404,0.454h-1.428v1.716c0,0.16-0.047,0.286-0.139,0.38
				c-0.094,0.092-0.221,0.14-0.381,0.14C108.381,48.624,108.258,48.576,108.164,48.484z M110.355,45.6
				c0.707,0,1.061-0.31,1.061-0.927c0-0.616-0.354-0.926-1.061-0.926h-1.301V45.6H110.355z"/>
			<path fill="#A8A7A7" d="M116.002,44.98c0.262,0.269,0.393,0.677,0.393,1.226v1.946c0,0.144-0.041,0.257-0.125,0.34
				c-0.086,0.082-0.203,0.124-0.354,0.124c-0.137,0-0.25-0.044-0.338-0.128c-0.088-0.086-0.133-0.197-0.133-0.336v-0.176
				c-0.09,0.208-0.232,0.37-0.426,0.487c-0.193,0.116-0.42,0.175-0.676,0.175c-0.26,0-0.496-0.052-0.709-0.159
				c-0.213-0.106-0.381-0.252-0.504-0.439c-0.121-0.186-0.182-0.393-0.182-0.621c0-0.288,0.072-0.514,0.219-0.679
				s0.385-0.285,0.713-0.359c0.33-0.074,0.785-0.111,1.365-0.111h0.199v-0.184c0-0.262-0.055-0.451-0.166-0.571
				c-0.111-0.119-0.293-0.179-0.543-0.179c-0.154,0-0.311,0.021-0.471,0.067c-0.16,0.045-0.348,0.11-0.566,0.196
				c-0.139,0.068-0.24,0.104-0.305,0.104c-0.096,0-0.174-0.035-0.234-0.104c-0.063-0.069-0.092-0.16-0.092-0.271
				c0-0.091,0.021-0.169,0.066-0.235c0.047-0.066,0.123-0.129,0.229-0.188c0.188-0.101,0.408-0.18,0.666-0.239
				c0.26-0.059,0.512-0.088,0.764-0.088C115.334,44.577,115.738,44.712,116.002,44.98z M115.195,47.654
				c0.168-0.179,0.25-0.408,0.25-0.691v-0.167h-0.143c-0.357,0-0.633,0.017-0.83,0.048c-0.197,0.032-0.338,0.088-0.424,0.168
				c-0.084,0.079-0.127,0.188-0.127,0.326c0,0.172,0.059,0.311,0.18,0.42c0.119,0.108,0.268,0.163,0.443,0.163
				C114.811,47.921,115.027,47.832,115.195,47.654z"/>
			<path fill="#A8A7A7" d="M121.072,44.722c0.09,0.085,0.137,0.198,0.137,0.343v3.152c0,0.611-0.17,1.074-0.51,1.388
				c-0.342,0.314-0.846,0.472-1.51,0.472c-0.58,0-1.064-0.109-1.453-0.328c-0.197-0.116-0.295-0.257-0.295-0.422
				c0-0.118,0.027-0.211,0.084-0.28s0.129-0.104,0.221-0.104c0.047,0,0.105,0.013,0.174,0.036c0.07,0.023,0.143,0.052,0.217,0.084
				c0.191,0.079,0.363,0.141,0.514,0.183c0.152,0.044,0.326,0.064,0.523,0.064c0.697,0,1.045-0.341,1.045-1.021v-0.51
				c-0.117,0.218-0.287,0.386-0.51,0.506c-0.225,0.119-0.479,0.18-0.768,0.18c-0.34,0-0.643-0.081-0.904-0.243
				c-0.264-0.162-0.471-0.39-0.619-0.683c-0.148-0.292-0.225-0.63-0.225-1.014c0-0.383,0.074-0.722,0.221-1.018
				c0.146-0.295,0.352-0.524,0.619-0.687c0.266-0.161,0.568-0.243,0.908-0.243c0.289,0,0.543,0.061,0.768,0.181
				c0.223,0.119,0.393,0.288,0.51,0.506v-0.208c0-0.138,0.045-0.249,0.135-0.334c0.092-0.086,0.211-0.128,0.359-0.128
				S120.982,44.636,121.072,44.722z M119.951,47.379c0.18-0.208,0.268-0.492,0.268-0.854c0-0.367-0.088-0.654-0.268-0.861
				c-0.178-0.208-0.426-0.312-0.746-0.312c-0.313,0-0.561,0.104-0.742,0.312c-0.18,0.207-0.271,0.494-0.271,0.861
				c0,0.362,0.092,0.646,0.271,0.854c0.182,0.207,0.43,0.311,0.742,0.311C119.525,47.689,119.773,47.586,119.951,47.379z"/>
			<path fill="#A8A7A7" d="M122.969,48.393c-0.301-0.165-0.535-0.402-0.699-0.711c-0.166-0.308-0.248-0.667-0.248-1.077
				s0.082-0.768,0.248-1.073c0.164-0.306,0.398-0.542,0.699-0.706c0.299-0.165,0.648-0.248,1.049-0.248
				c0.398,0,0.748,0.083,1.049,0.248c0.301,0.164,0.531,0.4,0.695,0.706c0.162,0.306,0.244,0.663,0.244,1.073
				s-0.082,0.77-0.244,1.077c-0.164,0.309-0.395,0.546-0.695,0.711s-0.65,0.246-1.049,0.246
				C123.617,48.639,123.268,48.558,122.969,48.393z M124.752,47.547c0.17-0.214,0.256-0.527,0.256-0.942
				c0-0.41-0.086-0.723-0.256-0.938c-0.17-0.216-0.416-0.323-0.734-0.323s-0.564,0.107-0.738,0.323
				c-0.174,0.215-0.26,0.527-0.26,0.938c0,0.415,0.086,0.729,0.256,0.942c0.17,0.212,0.416,0.318,0.734,0.318
				C124.334,47.865,124.582,47.759,124.752,47.547z"/>
		</g>
		<g>
			<g>
				<circle fill="none" stroke="#A8A7A7" stroke-width="0.6457" cx="117.014" cy="21.084" r="15.91"/>
			</g>
			<g>
				<g>
					<g>
						<path fill="#A8A7A7" d="M106.883,15.834v8.901c0,1.365,1.111,2.475,2.477,2.475h15.756c1.365,0,2.477-1.11,2.477-2.475v-8.901
							c0-1.366-1.111-2.476-2.477-2.476h-15.756C107.994,13.359,106.883,14.469,106.883,15.834z M108.254,24.735v-5.965h17.967
							v5.965c0,0.61-0.496,1.106-1.105,1.106h-15.756C108.75,25.841,108.254,25.346,108.254,24.735L108.254,24.735z M108.254,16.816
							v-0.982c0-0.61,0.496-1.106,1.105-1.106h15.756c0.609,0,1.105,0.496,1.105,1.106v0.983L108.254,16.816L108.254,16.816z"/>
						<path fill="#A8A7A7" d="M115.23,22.86c0,0.945-0.766,1.711-1.709,1.711c-0.391,0-0.75-0.13-1.037-0.35
							c-0.287,0.219-0.646,0.35-1.037,0.35c-0.945,0-1.711-0.766-1.711-1.711c0-0.944,0.766-1.71,1.711-1.71
							c0.391,0,0.75,0.13,1.037,0.35c0.287-0.219,0.646-0.35,1.037-0.35C114.465,21.149,115.23,21.916,115.23,22.86z"/>
					</g>
				</g>
				<circle fill="#FFFFFF" stroke="#A8A7A7" stroke-width="0.5481" cx="125.584" cy="25.246" r="3.563"/>
				<path fill="#A8A7A7" d="M125.904,24.825l-0.004-0.001c-0.486-0.184-0.643-0.29-0.643-0.438c0-0.167,0.158-0.264,0.434-0.264
					c0.186,0,0.361,0.029,0.535,0.086c0.082,0.027,0.172,0.02,0.248-0.022s0.133-0.113,0.154-0.197l0.033-0.128
					c0.041-0.162-0.051-0.328-0.211-0.378c-0.166-0.051-0.346-0.082-0.551-0.095v-0.187c0-0.173-0.139-0.313-0.313-0.313h-0.031
					c-0.174,0-0.313,0.141-0.313,0.313v0.233c-0.59,0.131-0.955,0.529-0.955,1.048c0,0.504,0.324,0.839,1.051,1.083
					c0.34,0.115,0.564,0.232,0.564,0.441c0,0.188-0.184,0.298-0.49,0.298c-0.213,0-0.434-0.04-0.65-0.123
					c-0.084-0.03-0.178-0.025-0.256,0.016c-0.078,0.042-0.137,0.115-0.16,0.2l-0.037,0.148c-0.039,0.156,0.045,0.316,0.197,0.372
					c0.213,0.078,0.461,0.129,0.707,0.145v0.226c0,0.173,0.141,0.313,0.314,0.313h0.031c0.174,0,0.313-0.141,0.313-0.313v-0.271
					c0.613-0.122,1.006-0.546,1.006-1.088C126.879,25.396,126.586,25.065,125.904,24.825z"/>
			</g>
		</g>
	</g>
</g>
</svg>
