<?xml version="1.0" encoding="utf-8"?>
<!-- Generator: Adobe Illustrator 24.0.0, SVG Export Plug-In . SVG Version: 6.00 Build 0)  -->
<svg version="1.1" id="Capa_1" xmlns="http://www.w3.org/2000/svg" xmlns:xlink="http://www.w3.org/1999/xlink" x="0px" y="0px"
	 viewBox="0 0 512 512" style="enable-background:new 0 0 512 512;" xml:space="preserve">
<style type="text/css">
	.st0{fill:#414448;stroke:#414448;stroke-width:3;stroke-miterlimit:10;}
	.st1{fill:#414448;}
</style>
<g>
	<path class="st0" d="M358.6,318.3l-9.9-57.7c-1.1-6.2-5.5-11.2-11.5-13l-26.6-8c-0.6-6.5-3.2-12.6-7.6-17.5
		c-3.5-3.9-8-6.7-12.9-8.3c0.8-0.9,1.6-1.9,2.3-2.8c6.3-8,9.7-16.9,10.6-22.9h2.1c5.3,0,9.7-4.3,9.7-9.7v-5c0-3.6-2-6.8-5-8.5v-11.9
		c0-1.8-1.5-3.2-3.3-3.2c-1.8,0-3.3,1.5-3.3,3.2v13.4c-1.3,0.2-2.8,0.6-4.3,1.3l-0.5,0.2l-1.1,0.5v-26.3c0-7.3-5.9-13.2-13.2-13.2
		h-9c-3.1,0-6.1,1.1-8.5,3l-0.9,0.7c-1.6,1.3-3.7,2.1-5.8,2.1c-2.1,0-4.1-0.7-5.8-2.1l-0.9-0.7c-2.4-2-5.4-3-8.5-3h-9
		c-7.3,0-13.2,5.9-13.2,13.2v26.3l-1.1-0.5l-0.5-0.2c-1.6-0.7-3.1-1-4.3-1.3v-33.8c0-10.6,8.6-19.2,19.1-19.2h48.1
		c10.6,0,19.1,8.6,19.1,19.2v5.1c0,1.8,1.5,3.3,3.3,3.3c1.8,0,3.3-1.5,3.3-3.3v-5.1c0-14.2-11.5-25.7-25.7-25.7H236
		c-14.2,0-25.7,11.5-25.7,25.7v32.4c-3,1.7-5,4.9-5,8.5v5c0,5.3,4.3,9.7,9.7,9.7h2.1c0.9,6,4.2,14.9,10.6,22.9
		c0.7,0.9,1.5,1.8,2.3,2.8c-11.3,3.6-19.5,13.8-20.6,25.7l-26.6,8c-6,1.8-10.4,6.8-11.5,13l-4,23.4c-0.3,1.8,0.9,3.5,2.7,3.8
		c1.8,0.3,3.5-0.9,3.8-2.7l4-23.4c0.6-3.8,3.3-6.8,7-7.9l24.6-7.4v6.4c-5.6,1-10.4,4.9-12.4,10.3c-0.5,1.4-0.9,2.9-1,4.4l-2.4,30.5
		c-0.2,2.3,0.6,4.6,2.2,6.3c1.6,1.7,3.8,2.7,6.1,2.7h4.1c1.8,0,3.3-1.5,3.3-3.3c0-1.8-1.5-3.3-3.3-3.3h-4.1l-1.3-0.6l-0.5-1.3
		l2.4-30.5c0.1-0.9,0.3-1.8,0.6-2.7c1.4-3.7,5.1-6.3,9.2-6.3l0.5,0h0.1c4,0,7.6,2.3,9.1,5.8c0.4,1,0.7,2.1,0.8,3.1l2.4,30.5
		l-0.5,1.3l-1.3,0.6h-4.1c-1.8,0-3.3,1.5-3.3,3.3c0,1.8,1.5,3.3,3.3,3.3h4.1c2.3,0,4.5-1,6.1-2.7c1.6-1.7,2.4-4,2.2-6.3l-2.4-30.5
		c-0.1-1.8-0.6-3.5-1.3-5.2c-2.2-5.1-6.7-8.6-12.2-9.5v-8.4l11.2-3.4c1,2.2,3,6.8,7,16.8c4,10.1,9.1,23,13.9,35.6l0.1,0.3
		c3.2,8.4,6.3,16.6,9,23.7c0.5,1.3,1.7,2.1,3,2.1c1.4,0,2.6-0.8,3.1-2.1c2.7-7.1,5.8-15.3,9-23.7l0.1-0.3C277,281,282,268,286,257.9
		c4-10,6-14.7,7.1-16.8l11.2,3.4v19.3c-7.8,1.5-13.7,8.4-13.7,16.6c0,9.3,7.6,16.9,16.9,16.9c9.3,0,16.9-7.6,16.9-16.9
		c0-8.2-5.8-15-13.6-16.5v-17.3l24.6,7.4c3.7,1.1,6.3,4.1,7,7.9l9.9,57.7c0.2,1-0.1,1.9-0.7,2.6c-0.6,0.7-1.5,1.2-2.5,1.2H171
		c-1,0-1.8-0.4-2.5-1.2c-0.6-0.7-0.9-1.7-0.7-2.6l3.3-19c0.3-1.8-0.9-3.5-2.7-3.8c-1.8-0.3-3.5,0.9-3.8,2.7l-3.2,19
		c-0.5,2.8,0.3,5.7,2.2,7.9c1.9,2.2,4.6,3.5,7.5,3.5h178c2.9,0,5.6-1.3,7.5-3.5C358.3,324.1,359.1,321.2,358.6,318.3 M303.3,173.2
		c1.7-0.4,3.1-0.4,3.1-0.4l1.6-0.4l0.2,1.2v5c0,1.7-1.4,3.1-3.1,3.1h-1.8V173.2z M216.8,181.6L216.8,181.6H215
		c-1.7,0-3.1-1.4-3.1-3.1v-5l0.2-1.2l1.6,0.4c0,0,1.4,0,3.1,0.4V181.6z M223.3,185.3v-8.6c1,0.3,2.1,0.3,3.1-0.2
		c1.7-0.7,2.8-2.4,2.8-4.2v-30.1c0-3.7,3-6.6,6.6-6.6h9c1.6,0,3.2,0.6,4.4,1.6l0.9,0.7c2.8,2.3,6.3,3.5,9.9,3.5
		c3.6,0,7.1-1.3,9.9-3.5l0.9-0.7c1.2-1,2.8-1.6,4.4-1.6h9c3.7,0,6.7,3,6.7,6.6v30.1c0,1.9,1.1,3.5,2.8,4.2c0.6,0.2,1.2,0.4,1.8,0.4
		l1.3-0.2v8.6c0,4.8-3.3,14-9.4,21.8c-2,2.6-4.6,5.3-7.8,7.7l-0.3,0.2c-5,3.7-11.3,6.5-19.2,6.5c-7.9,0-14.3-2.8-19.2-6.5l-0.3-0.2
		c-3.2-2.4-5.8-5.2-7.8-7.7C226.6,199.3,223.3,190.1,223.3,185.3 M281.4,238L260,254l-21.4-16c2.1-2.7,3.3-6.1,3.3-9.2v-5.3
		c5,2.7,11,4.5,18.1,4.5c7,0,13-1.8,18.1-4.5v5.3C278.1,231.8,279.3,235.3,281.4,238 M233.2,234.4c-1.7-0.7-3.7-0.8-5.5-0.3
		l-0.2,0.1l-11.3,3.4c1.9-9.4,9.5-16.8,19.2-18.3v9.5C235.4,230.8,234.5,232.9,233.2,234.4 M242.1,260.5L242.1,260.5l-0.5-1.3
		l-0.1-0.2l-0.5-1.2l0-0.1c-0.5-1.2-1-2.4-1.4-3.5l-0.1-0.2l-0.4-1l-0.1-0.3l-0.4-0.9l-0.1-0.3l-0.6-1.6l-0.2-0.4l-0.2-0.6l-0.3-0.6
		l-0.1-0.2L237,248c-0.4-0.9-0.7-1.8-1.1-2.6l0,0l-0.5-1.3l-0.3-0.6l18.4,13.7l-7.7,3.3l0,0l-3.2,1.4L242.1,260.5z M249.9,280.5
		c-0.6-1.7-1.3-3.4-1.9-5c-1-2.6-2-5.1-2.9-7.5l1.2-0.5l5,5.8L249.9,280.5z M260.1,307l-0.3-0.5c-1.5-3.9-3.3-8.8-5.4-14.2l3-16.7
		h5.3l3,16.7C263.5,297.9,261.6,303,260.1,307 M263.9,269h-7.7l-3.7-4.2l7.5-3.2l7.5,3.2L263.9,269z M272.1,275.5
		c-0.6,1.7-1.3,3.4-1.9,5l-1.3-7.3l5-5.8l1.2,0.5C274.1,270.3,273.2,272.8,272.1,275.5 M284.6,244.1l-0.5,1.2l-0.1,0.2l-0.5,1.2
		l0,0.1L283,248l-0.1,0.2l-0.1,0.3l-0.2,0.5l-0.3,0.7l-0.1,0.2c-0.2,0.6-0.5,1.1-0.7,1.7l-0.1,0.3l-0.4,0.9l-0.1,0.4l-0.4,0.9
		l-0.1,0.3c-0.4,1.1-0.9,2.2-1.4,3.4l0,0.1l-0.5,1.2l-0.1,0.2l-0.5,1.2l0,0l-0.5,1.4l-3.2-1.4l0,0l-7.7-3.3l18.4-13.7L284.6,244.1z
		 M292.6,234.1L292.6,234.1L292.6,234.1c-1.9-0.6-3.9-0.5-5.7,0.2c-1.3-1.4-2.2-3.5-2.2-5.6v-9.5c9.8,1.4,17.4,8.8,19.2,18.3
		L292.6,234.1z M317.9,280.3c0,5.7-4.6,10.4-10.4,10.4s-10.4-4.6-10.4-10.4c0-5.7,4.6-10.4,10.4-10.4S317.9,274.6,317.9,280.3"/>
	<path class="st1" d="M362.7,10.8H153.7c-28.8,0-52.3,23.5-52.3,52.3v382c0,28.8,23.4,52.3,52.3,52.3h209.1
		c28.8,0,52.3-23.4,52.3-52.3v-382C415,34.2,391.6,10.8,362.7,10.8 M386.5,445.1c0,13.1-10.7,23.8-23.8,23.8H153.7
		c-13.1,0-23.8-10.7-23.8-23.8v-4.8h256.6V445.1z M386.5,411.8H129.9V63.1c0-13.1,10.7-23.8,23.8-23.8h209.1
		c13.1,0,23.8,10.7,23.8,23.8V411.8z"/>
</g>
<circle class="st1" cx="258.2" cy="454.6" r="9.8"/>
</svg>
