<?xml version="1.0" encoding="utf-8"?>
<!-- Generator: Adobe Illustrator 24.0.0, SVG Export Plug-In . SVG Version: 6.00 Build 0)  -->
<svg version="1.1" id="_x33_0" xmlns="http://www.w3.org/2000/svg" xmlns:xlink="http://www.w3.org/1999/xlink" x="0px" y="0px"
	 viewBox="0 0 512 512" style="enable-background:new 0 0 512 512;" xml:space="preserve">
<style type="text/css">
	.st0{fill:#414448;}
</style>
<g>
	<path class="st0" d="M190.3,165.3l0.8-1.7l-14.3-7.2l-0.8,1.7c-3,6.1-9.2,9.9-16,9.9s-13-3.8-16-9.9l-0.8-1.7l-14.3,7.2l0.8,1.7
		c5.8,11.6,17.4,18.7,30.3,18.7S184.5,176.8,190.3,165.3z"/>
	<path class="st0" d="M384,262.1c-3,6.1-9.2,9.9-16,9.9s-13-3.8-16-9.9l-0.8-1.7l-14.3,7.2l0.8,1.7c5.8,11.6,17.4,18.7,30.3,18.7
		s24.5-7.2,30.3-18.7l0.8-1.7l-14.3-7.2L384,262.1z"/>
	<path class="st0" d="M128,366.1c-3,6.1-9.2,9.9-16,9.9s-13-3.8-16-9.9l-0.8-1.7l-14.3,7.2l0.8,1.7C87.5,384.8,99.1,392,112,392
		s24.5-7.2,30.3-18.7l0.8-1.7l-14.3-7.2L128,366.1z"/>
	<path class="st0" d="M472,356.3V216c0-57.3-46.7-104-104-104s-104,46.7-104,104v36.3c-5.1-3-10.7-5.2-16.5-6.7l-48.7-12.2
		l-5.2-25.9c18.2-9.7,31.8-27,36.5-47.6h1.9c17.6,0,32-14.4,32-32c0-6.9-2.3-13.3-6-18.5c9.1-20.4,14-42.9,14-65.2V24
		c0-8.8-7.2-16-16-16H121C85.2,8,56,37.2,56,73c0,5.3,0.7,10.6,1.9,15.8l4.9,19.7c-4.2,5.4-6.9,12.2-6.9,19.6c0,17.6,14.4,32,32,32
		h1.9c4.7,20.6,18.2,37.9,36.5,47.6l-5,24.9c-3.1-0.3-6.2-0.5-9.4-0.5C54.7,232,8,278.7,8,336c0,32.6,7.7,65.3,22.3,94.5l0,0.1
		C16.2,449.2,8,472.2,8,496v8h496v-92.3C504,388.4,491.4,367.5,472,356.3L472,356.3z M488,411.7V470c-14.6-19.8-33.4-36.4-54.9-48.4
		c-24.9-13.9-53.1-21.3-81.7-21.6c-2-14.6-9.2-28-20.7-37.6l-8.2-6.9l11.1-2.8l1.5,1.5c8.7,8.7,20.7,13.6,33,13.6s24.3-5,33-13.7
		l1.5-1.5l49.2,12.3C473,370.5,488,389.7,488,411.7z M352,440h-28.7l24-24h2.1c26.5,0,52.7,6.8,75.9,19.7
		c21.7,12,40.4,29.3,54.1,49.9l1.6,2.4H379.6c2.8-4.7,4.4-10.1,4.4-16C384,454.4,369.6,440,352,440z M232,394.9
		c0-22.6,17.6-41,39.8-42.6l-9.9,13.2c-3.8,5-5.9,11.3-5.9,17.6c0,7.7,3.1,15.3,8.6,20.8l10.7,10.7c3,3,4.7,7.1,4.7,11.3V440h-20.7
		l-14.7-14.7C236.6,417.3,232,406.2,232,394.9L232,394.9z M286.6,403.3l-10.7-10.7c-2.5-2.5-3.9-5.9-3.9-9.5c0-2.9,0.9-5.7,2.7-8
		l15.7-21c5.3,1.7,10.3,4.2,14.6,7.8l15.4,12.8c9.1,7.6,14.5,18.4,15.4,30.1L300.7,440H296v-14.1C296,417.5,292.6,409.3,286.6,403.3
		L286.6,403.3z M368,304c-30.9,0-56-25.1-56-56v-32.9c0-11.8,5.8-22.7,15.6-29.2c2.6-1.7,5.4-3.1,8.4-4.1l10.8-3.6
		c10.3,14.4,26.4,24,45,25.9l17.8,1.8c8.2,0.8,14.4,7.7,14.4,15.9V248C424,278.9,398.9,304,368,304L368,304z M368,320
		c6.4,0,12.6-0.9,18.5-2.5l4.8,23.9l-1.7,1.7c-5.7,5.7-13.6,9-21.7,9s-16-3.3-21.7-9l-1.7-1.7l4.8-23.9
		C355.4,319.1,361.6,320,368,320L368,320z M368,128c48.5,0,88,39.5,88,88v133.8c-0.2,0-0.3-0.1-0.5-0.1l-48.7-12.2l-5.2-25.9
		c22.8-12.1,38.3-36.1,38.3-63.6v-26.3c0-16.5-12.4-30.2-28.8-31.8l-17.8-1.8c-20.8-2.1-37.5-17.2-41.5-37.7l-15.7,3.1
		c0.7,3.6,1.7,7,3,10.3l-8.2,2.7c-4.3,1.4-8.4,3.4-12.2,6c-14.3,9.5-22.8,25.4-22.8,42.5V248c0,27.5,15.6,51.5,38.3,63.6l-5.2,25.9
		l-23.4,5.8c-7.9-4.3-16.7-6.7-25.8-7.1V216C280,167.5,319.5,128,368,128L368,128z M264,272.1v65c-27.3,5.1-48,29.1-48,57.9
		c0,7.1,1.3,14,3.7,20.4c-8.1,6.9-14.7,15.3-19.6,24.7c-2-3.3-4.2-6.4-6.5-9.5l0-0.1c14.6-29.2,22.3-61.9,22.3-94.5
		c0-18.7-5-36.3-13.8-51.5l24.5-27.6l16.9,4.2C251.3,263.1,258.2,266.9,264,272.1L264,272.1z M209.2,252.6L193,270.9
		c-3.5-4.4-7.4-8.4-11.6-12.2c4.2-2.2,8.2-5,11.6-8.4l1.5-1.5L209.2,252.6z M168,112h-16c0-8.8-7.2-16-16-16h-32v-3.2
		c0-7.9,5.9-14.7,13.7-15.8l21.4-3.1c6.5,3.9,14.1,6.1,22.1,6.1H200c8.8,0,16,7.2,16,16h-32C175.2,96,168,103.2,168,112z M104,112
		h32v16h-32V112z M184,112h32v16h-32V112z M232,144v-32c8.8,0,16,7.2,16,16S240.8,144,232,144z M121,24h135v20.2
		c0,18.7-3.7,37.4-10.8,54.7c-4-1.8-8.5-2.9-13.2-2.9c0-17.6-14.4-32-32-32h-38.7c-11.7,0-22-7.4-25.7-18.5l-15.2,5.1
		c1.1,3.3,2.6,6.4,4.4,9.3l-9.3,1.3C99.8,63.4,88,77,88,92.8V96c-4,0-7.7,0.8-11.2,2.1l-3.3-13.3C72.5,81,72,77,72,73
		C72,46,94,24,121,24z M72,128c0-8.8,7.2-16,16-16v32C79.2,144,72,136.8,72,128z M104,144h32c8.8,0,16-7.2,16-16h16
		c0,8.8,7.2,16,16,16h32c0,30.9-25.1,56-56,56S104,174.9,104,144z M141.5,213.5c5.9,1.6,12.1,2.5,18.5,2.5s12.6-0.9,18.5-2.5
		l4.8,23.9l-1.7,1.7c-4.3,4.3-9.8,7.1-15.6,8.3c-8.9-5.4-18.6-9.5-28.9-12.1L141.5,213.5z M24,336c0-48.5,39.5-88,88-88
		s88,39.5,88,88c0,28-6.2,56-17.9,81.5c-2.9-2.8-6-5.4-9.3-7.8c-3.3-2.4-6.6-4.7-10-6.7c13.1-13,21.2-31.1,21.2-51v-10.3
		c0-16.5-12.4-30.2-28.8-31.8l-17.8-1.8c-20.8-2.1-37.5-17.2-41.5-37.7l-15.7,3.1c0.7,3.6,1.7,7,3,10.3l-8.2,2.7
		c-4.3,1.4-8.4,3.4-12.2,6C48.5,302,40,317.9,40,335.1V352c0,19.9,8.1,37.9,21.2,51c-3.4,2-6.8,4.2-10,6.7c-3.3,2.4-6.4,5.1-9.3,7.8
		C30.2,392,24,364,24,336L24,336z M112,408c-30.9,0-56-25.1-56-56v-16.9c0-11.8,5.8-22.7,15.6-29.2c2.6-1.7,5.4-3.1,8.4-4.1
		l10.8-3.6c10.3,14.4,26.4,24,45,25.9l17.8,1.8c8.2,0.8,14.4,7.7,14.4,15.9V352C168,382.9,142.9,408,112,408L112,408z M75.2,413.7
		C86,420.2,98.5,424,112,424s26-3.8,36.8-10.3c3.6,1.8,7.1,3.9,10.6,6.2c-1.8,7-7.9,12-15.5,12c-2.8,0-5.5-0.7-7.8-2l-6.5-3.6
		l-4.1,6.3c-3,4.6-8.1,7.4-13.5,7.4s-10.5-2.8-13.5-7.4l-4.1-6.3l-6.5,3.6c-2.4,1.3-5,2-7.9,2c-7.6,0-13.7-5-15.4-12
		C68,417.6,71.5,415.5,75.2,413.7L75.2,413.7z M51.6,430.5C57,440.8,67.6,448,80,448c3.2,0,6.3-0.5,9.3-1.4c6,6,14.1,9.4,22.7,9.4
		s16.7-3.4,22.7-9.4c3,0.9,6.2,1.4,9.3,1.4c12.4,0,23.1-7.2,28.4-17.6c15.5,15.3,25.2,35.8,27.2,57.6H24.4
		C26.3,466.2,36.1,445.7,51.6,430.5L51.6,430.5z M215.5,488c-0.7-9.8-2.7-19.5-6-28.6c3.3-11.3,9.6-21.5,18-29.5
		c1.7,2.4,3.6,4.6,5.7,6.7l19.4,19.4H352c8.8,0,16,7.2,16,16s-7.2,16-16,16H215.5z"/>
</g>
</svg>
