<?xml version="1.0" encoding="utf-8"?>
<!-- Generator: Adobe Illustrator 24.0.0, SVG Export Plug-In . SVG Version: 6.00 Build 0)  -->
<svg version="1.1" id="Capa_1" xmlns="http://www.w3.org/2000/svg" xmlns:xlink="http://www.w3.org/1999/xlink" x="0px" y="0px"
	 viewBox="0 0 366.9 366.9" style="enable-background:new 0 0 366.9 366.9;" xml:space="preserve">
<style type="text/css">
	.st0{fill:#414448;}
</style>
<g>
	<path class="st0" d="M258.8,81.5V35.4c0-19.5-15.9-35.4-35.4-35.4h-79.9c-19.5,0-35.4,15.9-35.4,35.4v46.1
		c-23.7,1.5-42.4,21.2-42.4,45.2v194.9c0,25,20.3,45.3,45.3,45.3h144.9c25,0,45.3-20.3,45.3-45.3V126.7
		C301.2,102.7,282.4,83,258.8,81.5z M123.1,35.4c0-11.2,9.1-20.4,20.4-20.4h9.3v24.9c0,4.1,3.4,7.5,7.5,7.5s7.5-3.4,7.5-7.5V15h31.4
		v24.9c0,4.1,3.4,7.5,7.5,7.5s7.5-3.4,7.5-7.5V15h9.3c11.2,0,20.4,9.1,20.4,20.4v46H123.1V35.4z M286.2,321.6
		c0,16.7-13.6,30.3-30.3,30.3H111c-16.7,0-30.3-13.6-30.3-30.3V126.7c0-16.7,13.6-30.3,30.3-30.3h4.6h135.6h4.6
		c16.7,0,30.3,13.6,30.3,30.3V321.6z"/>
	<path class="st0" d="M246.4,196.7h-33v-33c0-4.1-3.4-7.5-7.5-7.5H161c-4.1,0-7.5,3.4-7.5,7.5v33h-33c-4.1,0-7.5,3.4-7.5,7.5v44.9
		c0,4.1,3.4,7.5,7.5,7.5h33v33c0,4.1,3.4,7.5,7.5,7.5h44.9c4.1,0,7.5-3.4,7.5-7.5v-33h33c4.1,0,7.5-3.4,7.5-7.5v-44.9
		C253.9,200.1,250.6,196.7,246.4,196.7L246.4,196.7z M238.9,241.6h-33c-4.1,0-7.5,3.4-7.5,7.5v33h-29.9v-33c0-4.1-3.4-7.5-7.5-7.5
		h-33v-29.9h33c4.1,0,7.5-3.4,7.5-7.5v-33h29.9v33c0,4.1,3.4,7.5,7.5,7.5h33V241.6z"/>
</g>
</svg>
